<svg width="648" height="459" viewBox="0 0 648 459" fill="none" xmlns="http://www.w3.org/2000/svg">
<path d="M342.758 458.003C494.548 458.003 617.599 442.358 617.599 423.059C617.599 403.759 494.548 388.114 342.758 388.114C190.968 388.114 67.918 403.759 67.918 423.059C67.918 442.358 190.968 458.003 342.758 458.003Z" fill="#E3E5FC"/>
<path d="M396.83 323.315C401.423 317.597 409.268 314.207 415.903 309.952C422.533 305.697 428.45 299.497 426.945 292.498C424.455 280.888 403.804 274.941 401.628 263.307C399.144 250.005 421.844 244.107 427.12 231.802C430.13 224.779 426.867 216.566 421.506 209.948C416.145 203.33 408.826 197.819 402.511 191.727C394.86 184.347 388.49 175.699 387.353 166.488C386.217 157.278 391.397 147.554 401.822 144.127C407.696 142.199 414.465 142.392 420.817 141.522C427.169 140.652 433.799 138.162 435.533 133.279C436.391 130.855 435.908 128.208 435.684 125.634C433.835 104.215 453.374 84.156 479.603 80.5601C478.056 85.6065 486.547 90.242 492.96 89.1239C499.372 88.0119 503.56 83.5275 507.156 79.2909C510.752 75.0543 514.729 70.5035 521.032 69.1195C526.091 68.0075 531.669 69.1799 536.915 70.4007C540.976 71.3435 545.684 72.8001 546.99 75.9971C547.534 77.3267 547.352 78.7289 547.123 80.0706C545.038 92.188 539.345 103.526 536.516 115.504C533.688 127.483 534.111 140.954 543.128 151.591C548.549 157.985 556.811 163.031 560.449 170.097C566.221 181.301 558.473 193.002 550.537 202.49C542.602 211.979 533.875 222.851 537.773 234.449C541.69 246.113 600.391 239 586.128 310.841C582.671 328.246 557.82 309.698 560.594 327.352C561.767 334.81 544.826 328.113 543.188 335.348C542.669 337.644 553.831 348.922 552.931 351.121C549.806 358.761 540.197 358.863 547.649 365.028C551.541 368.249 556.793 370.981 558.183 375.211C560.679 382.808 549.081 387.613 539.393 387.915C531.307 388.163 529.584 364.949 522.864 368.769C514.971 373.259 506.588 390.882 467.873 385.963C451.869 383.926 445.505 343.591 433.509 350.42C406.076 366.025 373.03 352.947 396.83 323.315Z" fill="#E3E5FC"/>
<rect x="470.994" y="393.11" width="233.018" height="2.26636" transform="rotate(-88.0172 470.994 393.11)" fill="white"/>
<path d="M472.756 275.782L471.463 273.92C474.968 271.485 505.887 250.12 511.828 249.746L511.967 252.006C507.954 252.26 486.318 266.366 472.756 275.782Z" fill="white"/>
<path d="M472.883 232.455C457.828 211.895 432.801 176.848 434.361 173.082C434.56 172.605 434.971 172.279 435.485 172.2L435.829 174.436C436.264 174.37 436.494 173.971 436.494 173.777C436.446 177.464 459.907 210.897 474.708 231.107L472.883 232.455Z" fill="white"/>
<path d="M478.632 191.243L477.115 189.563C478.257 188.536 505.121 164.331 507.92 162.27L509.261 164.095C506.554 166.084 478.91 190.99 478.632 191.243Z" fill="white"/>
<path d="M513.994 254.182C515.36 250.61 516.997 246.863 521.083 244.874C526.262 242.372 533.732 243.406 539.631 245.86C545.523 248.313 550.522 252.066 556.239 255.046C557.774 255.844 559.569 256.617 561.261 256.315C562.971 256.013 564.023 254.707 564.821 253.463C573.729 239.067 570.822 221.528 574.031 205.887C574.841 201.614 576.328 197.021 580.027 193.969C589.745 185.478 591.721 191.521 601.016 181.9C607.507 175.179 611.435 160.941 620.96 157.592C640.656 150.672 632.528 189.309 632.026 198.441C631.083 215.762 654.635 219.564 646.156 239.103C642.475 247.588 635.181 253.656 629.741 260.842C624.357 268.07 621.057 278.217 627.53 285.862C631.742 290.842 640.076 294.849 639.605 300.796C639.315 304.295 635.743 306.435 632.389 308.079C624.018 312.225 615.346 315.942 606.401 319.229C604.141 320.063 601.735 320.946 600.647 322.716C599.155 325.134 600.593 328.416 601.53 331.425C604.987 342.528 600.478 353.104 591.745 359.873C583.06 366.672 570.617 370.147 557.949 372.709C541.649 376.033 524.703 378.125 507.237 378.91C456.404 379.073 480.742 345.005 485.51 331.915C494.666 305.619 504.167 279.704 513.994 254.182Z" fill="#FDC510"/>
<path d="M522.692 367.167C522.487 367.167 522.275 367.113 522.088 366.992C521.562 366.66 521.399 365.958 521.731 365.433L607.17 229.711C607.502 229.179 608.21 229.022 608.729 229.354C609.255 229.687 609.418 230.388 609.086 230.913L523.647 366.635C523.435 366.98 523.067 367.167 522.692 367.167Z" fill="white"/>
<path d="M571.279 289.924C570.801 289.924 570.36 289.622 570.203 289.144L563.778 269.46C563.585 268.868 563.911 268.227 564.504 268.034C565.102 267.84 565.737 268.161 565.93 268.759L572.354 288.443C572.548 289.035 572.221 289.676 571.629 289.869C571.508 289.906 571.393 289.924 571.279 289.924Z" fill="white"/>
<path d="M583.576 270.814C583.063 270.814 582.603 270.463 582.477 269.944C582.331 269.333 582.706 268.723 583.311 268.578L603.442 263.737C604.058 263.586 604.663 263.966 604.808 264.571C604.953 265.181 604.578 265.792 603.974 265.937L583.842 270.778C583.758 270.802 583.667 270.814 583.576 270.814Z" fill="white"/>
<path d="M405.418 367.04C404.282 363.88 403.713 360.253 405.194 357.238C408.065 351.387 416.671 351.327 422.455 354.313C428.238 357.298 432.916 362.357 439.075 364.484C445.233 366.611 453.984 363.65 454.135 357.141C454.208 353.853 452.069 350.995 450.274 348.239C445.124 340.328 442.145 331.014 441.758 321.586C441.607 317.996 442.822 313.3 446.412 313.095C448.515 312.974 450.274 314.594 451.748 316.099C457.84 322.312 463.932 328.524 470.024 334.743C471.342 317.084 473.596 297.49 487.013 285.935C489.515 283.783 493.437 282.043 495.885 284.261C496.967 285.246 497.39 286.751 497.668 288.189C499.856 299.491 496.151 311.469 499.275 322.547C499.741 324.191 500.399 325.865 501.717 326.953C507.797 331.993 515.672 319.356 523.317 321.351C528.291 322.65 529.518 329.528 527.511 334.26C525.505 338.992 521.492 342.594 519.092 347.139C516.699 351.684 516.645 358.392 521.135 360.888C523.232 362.054 525.771 361.982 528.17 361.873C535.622 361.541 543.074 361.208 550.525 360.876C546.543 366.69 542.566 372.51 538.583 378.324C537.538 379.853 536.438 381.642 536.915 383.437C537.912 387.208 543.853 386.35 546.688 389.033C549.855 392.031 547.135 397.809 543.068 399.392C539 400.975 534.461 399.972 530.104 399.767C505.651 398.6 488.3 414.773 463.678 405.176C443.632 397.355 413.595 389.819 405.418 367.04Z" fill="#8C50FF"/>
<path d="M480.642 409.062C480.624 409.062 480.612 409.062 480.594 409.062C480.122 409.038 479.772 408.633 479.796 408.167C481.126 384.742 483.761 345.247 486.432 343.966C486.855 343.767 487.363 343.942 487.562 344.365C487.743 344.74 487.623 345.181 487.296 345.416C485.513 348.13 482.788 385.329 481.482 408.264C481.464 408.711 481.089 409.062 480.642 409.062Z" fill="white"/>
<path d="M482.07 386.894C481.683 386.894 481.339 386.628 481.242 386.241C481.133 385.788 481.417 385.329 481.877 385.22L512.119 378.07C512.572 377.961 513.031 378.245 513.14 378.699C513.249 379.152 512.965 379.611 512.506 379.72L482.263 386.87C482.197 386.882 482.13 386.894 482.07 386.894Z" fill="white"/>
<path d="M481.013 402.904C480.862 402.904 480.711 402.868 480.572 402.783L442.037 379.449C441.639 379.207 441.512 378.681 441.753 378.282C441.995 377.883 442.521 377.75 442.92 377.998L481.454 401.333C481.853 401.574 481.98 402.1 481.738 402.499C481.581 402.759 481.303 402.904 481.013 402.904Z" fill="white"/>
<path d="M483.01 374.33C482.744 374.33 482.485 374.209 482.321 373.973L467.901 353.836C467.629 353.455 467.714 352.923 468.095 352.651C468.475 352.379 469.001 352.464 469.279 352.845L483.699 372.982C483.971 373.363 483.887 373.895 483.506 374.167C483.355 374.275 483.186 374.33 483.01 374.33Z" fill="white"/>
<path d="M552.321 34.695C552.852 35.4807 553.554 36.218 554.466 36.4718C555.995 36.8888 557.597 35.7285 558.237 34.278C558.878 32.8275 558.793 31.1776 558.703 29.5942C561.132 31.8787 564.462 33.722 567.702 32.9182C570.941 32.1144 572.99 27.491 570.512 25.2488C572.863 25.8592 575.389 26.4696 577.668 25.6175C579.94 24.7714 581.56 21.7979 580.139 19.8277C579.426 18.8365 578.199 18.3832 577.045 17.9844C571.829 16.1834 566.614 14.3824 561.398 12.5813C560.05 12.116 558.654 11.6446 557.228 11.7594C546.567 12.6418 547.866 28.1618 552.321 34.695Z" fill="#FDC510"/>
<path d="M59.4573 131.472C59.9892 132.257 60.6902 132.995 61.6028 133.248C63.1319 133.665 64.7334 132.505 65.374 131.055C66.0147 129.604 65.9301 127.954 65.8394 126.371C68.2689 128.655 71.599 130.499 74.8384 129.695C78.0778 128.891 80.1266 124.268 77.6487 122.025C79.9996 122.636 82.5259 123.246 84.8043 122.394C87.0767 121.548 88.6964 118.575 87.2762 116.604C86.563 115.613 85.3362 115.16 84.1818 114.761C78.9662 112.96 73.7505 111.159 68.5349 109.358C67.1871 108.893 65.7911 108.421 64.3648 108.536C53.7038 109.418 55.0032 124.932 59.4573 131.472Z" fill="#E3E5FC"/>
<path d="M195.91 60.4891C193.783 61.1539 185.243 35.2871 176.867 46.3953C169.391 56.3129 189.274 62.5681 195.91 60.4891Z" fill="#FDC510"/>
<path d="M14.9094 189.025C20.6388 190.059 26.5374 189.454 32.2486 188.336C26.3923 186.39 21.1343 183.018 15.544 180.401C12.2502 178.86 0.592038 173.596 0.833783 180.999C0.97883 185.308 11.7788 188.463 14.9094 189.025Z" fill="#E3E5FC"/>
<path d="M505.851 28.192C513.92 31.2923 523.257 30.9297 531.065 27.2129C527.735 28.8024 514.518 23.1757 510.952 22.1423C505.966 20.6979 498.502 16.3464 493.559 18.6914C495.323 23.1093 501.337 26.4574 505.851 28.192Z" fill="#E3E5FC"/>
<path d="M562.379 118.544C564.857 122.902 567.329 127.259 569.807 131.617C571.027 133.762 572.278 135.956 574.128 137.594C575.977 139.232 578.558 140.253 580.945 139.618C581.906 139.365 582.885 138.73 583.048 137.751C583.169 137.032 582.818 136.325 582.468 135.69C578.431 128.383 572.587 122.08 565.6 117.511" fill="#FDC510"/>
<path d="M599.373 89.3173C600.243 89.4442 601.114 89.136 601.93 88.8096C607.532 86.5795 612.79 83.4912 617.468 79.6837C613.6 79.6354 593.003 76.0153 590.821 78.197C587.28 81.7325 595.251 88.7008 599.373 89.3173Z" fill="#E3E5FC"/>
<path d="M124.422 52.2639C124.941 52.0524 125.485 51.7986 125.769 51.3151C126.688 49.7377 124.119 48.4927 122.294 48.4685C118.414 48.4081 98.7422 46.4137 101.915 53.2551C104.967 59.8366 119.84 54.1616 124.422 52.2639Z" fill="#FDC510"/>
<path d="M159.487 347.193C148.747 344.117 138.104 340.932 130.411 332.918C126.434 328.772 123.992 321.205 128.676 317.881C131.033 316.207 134.188 316.473 137.077 316.262C148.179 315.464 142.002 305.486 136.424 301.666C126.579 294.928 114.619 289.537 109.705 278.658C109.397 277.975 109.113 277.226 109.264 276.488C109.488 275.388 110.569 274.706 111.585 274.234C118.529 271.061 130.356 275.249 135.264 268.396C147.242 251.649 110.056 223.335 101.794 212.583C100.217 210.528 98.5667 208.304 98.4156 205.717C98.1195 200.701 103.674 197.117 108.702 196.96C116.401 196.725 123.612 201.124 131.39 199.873C137.518 198.888 141.561 193.08 142.963 187.399C147.176 170.29 139.041 151.742 139.923 134.39C140.649 120.188 150.476 93.1246 169.616 99.7423C178.379 102.77 181.02 113.528 183.758 122.388C186.29 130.601 189.928 139.836 195.204 146.647C199.072 151.639 204.729 155.616 211.033 155.966C223.283 156.649 239.347 146.858 239.534 166.651C239.595 172.713 237.443 178.569 236.748 184.595C236.053 190.614 237.28 197.565 242.302 200.961C251.459 207.156 278.842 194.392 277.549 213.949C277.223 218.844 274.588 223.238 272.291 227.571C261.195 248.531 282.329 247.564 287.642 263.489C289.552 269.218 288.325 275.618 285.635 281.021C281.32 289.694 273.85 296.65 268.405 304.622C257.351 320.806 249.948 339.227 243.85 357.757C239.377 371.343 235.588 397.814 216.593 398.074C204.874 398.237 201.109 380.451 197.163 372.431C189.469 356.802 175.315 351.72 159.487 347.193Z" fill="#FDC510"/>
<path d="M228.103 404.167C227.577 404.167 227.105 403.798 226.997 403.26L184.455 193.419C184.335 192.809 184.727 192.21 185.338 192.083C185.96 191.962 186.553 192.355 186.673 192.966L229.215 402.807C229.335 403.417 228.943 404.015 228.332 404.142C228.254 404.154 228.181 404.167 228.103 404.167Z" fill="white"/>
<path d="M199.763 258.418C199.606 258.418 199.448 258.388 199.297 258.315C198.729 258.062 198.475 257.391 198.729 256.817L216.824 216.626C217.078 216.052 217.755 215.805 218.323 216.058C218.891 216.312 219.145 216.983 218.891 217.557L200.796 257.747C200.603 258.17 200.192 258.418 199.763 258.418Z" fill="white"/>
<path d="M215.968 334.344C215.811 334.344 215.654 334.314 215.502 334.241C214.934 333.988 214.681 333.317 214.934 332.743L233.029 292.552C233.289 291.978 233.96 291.731 234.528 291.984C235.096 292.238 235.35 292.909 235.096 293.483L217.001 333.673C216.814 334.096 216.403 334.344 215.968 334.344Z" fill="white"/>
<path d="M204.375 299.315C204.212 299.315 204.049 299.279 203.892 299.207L164.783 280.737C164.221 280.471 163.974 279.795 164.245 279.232C164.511 278.664 165.188 278.429 165.756 278.695L204.865 297.164C205.427 297.43 205.675 298.107 205.403 298.669C205.203 299.074 204.798 299.315 204.375 299.315Z" fill="white"/>
<path d="M593.896 410.494C596.761 405.091 598.894 399.845 602.98 395.161C604.358 393.584 606.044 392 608.141 391.946C608.534 391.934 608.975 392 609.247 392.303C609.489 392.569 609.543 392.949 609.573 393.306C611.501 416.072 581.827 414.749 575.898 395.578C575.53 394.394 575.258 393.106 575.62 391.94C576.279 389.807 578.938 388.912 581.053 389.601C583.169 390.284 584.77 392.127 585.955 394.067C589.098 399.192 590.077 405.315 590.983 411.243C589.515 403.483 590.451 395.331 593.624 388.278C594.102 387.22 595.02 386.011 596.114 386.398C596.64 386.585 596.984 387.099 597.256 387.601C599.227 391.185 599.372 395.536 598.483 399.458C597.595 403.381 595.752 406.977 593.896 410.494Z" fill="#8C50FF"/>
<path d="M205.823 386.622C208.476 382.476 210.761 377.671 211.347 372.298C211.486 370.999 211.504 369.567 210.912 368.515C210.398 367.602 209.534 367.173 208.694 366.938C202.735 365.257 197.145 371.017 192.848 376.716C185.251 386.785 178.47 397.923 172.656 409.884C176.131 402.728 177.968 389.003 177.14 380.59C177.11 380.258 177.056 379.901 176.862 379.69C176.663 379.478 176.379 379.49 176.125 379.551C174.294 380.016 173.139 382.367 172.257 384.543C169.537 391.281 167.174 399.065 165.597 406.626C166.588 401.876 163.657 396.158 160.998 393.33C156.241 388.272 157.257 395.331 158.29 399.476C159.299 403.544 166.026 419.451 170.819 415.897C171.695 415.244 171.912 411.691 172.632 410.548C173.889 408.566 175.635 407.913 177.436 407.176C182.271 405.194 187.306 404.378 191.85 401.259C197.163 397.621 201.961 392.659 205.823 386.622Z" fill="#8C50FF"/>
<path d="M264.977 374.54C265.182 374.51 265.4 374.534 265.63 374.613C266.349 374.867 266.718 375.64 266.996 376.354C269.504 382.863 269.201 381.219 269.903 390.169C270.531 384.41 270.09 385.473 272.108 380.04C272.501 378.982 272.948 377.895 273.807 377.157C279.361 372.407 276.061 390.048 275.324 392.133C272.598 399.851 265.364 402.806 257.664 401.35C250.907 400.075 244.012 396.068 240.688 389.928C240.385 389.372 240.119 388.658 240.488 388.145C240.742 387.788 241.207 387.673 241.636 387.601C245.492 386.978 249.427 388.362 252.769 390.381C256.117 392.399 259.036 395.034 262.245 397.271C264.518 398.854 268.839 398.05 271.607 397.947C276.309 397.772 277.844 395.687 281.476 392.695C282.268 392.043 283.144 391.42 284.159 391.269C285.175 391.118 286.347 391.583 286.698 392.55C286.903 393.125 286.794 393.765 286.625 394.351C284.45 401.803 275.366 402.299 270.543 397.397C265.944 392.72 262.124 384.325 262.916 377.713C263.073 376.372 263.841 374.698 264.977 374.54Z" fill="#F44E4E"/>
<path d="M46.4451 336.526C47.7867 335.759 49.2433 335.197 50.7663 334.919C57.1181 333.758 63.3431 337.499 68.1115 341.857C72.8739 346.22 77.0379 351.442 82.7854 354.397C85.4567 355.769 89.7477 355.914 90.4427 352.995C90.7691 351.635 90.0559 350.269 89.3428 349.067C82.175 337.022 71.925 327.636 62.7447 317.199C60.291 314.406 57.6802 310.611 59.3724 307.299C61.1855 303.746 66.5583 304.005 69.9064 306.181C73.2546 308.351 75.6902 311.796 79.2439 313.615C80.1685 314.086 81.202 314.449 82.2355 314.322C84.1936 314.08 85.5776 312.116 85.8254 310.158C87.3363 298.113 72.7893 288.612 68.2626 278.743C64.3947 270.324 65.1501 260.558 66.6127 251.408C67.7549 244.264 69.5197 236.728 74.7051 231.681C75.8776 230.545 77.328 229.512 78.9598 229.518C85.1787 229.53 85.3177 243.962 88.7686 247.981C91.8992 251.637 96.4138 254.224 98.4384 258.587C100.995 264.099 98.8071 270.554 99.2181 276.616C99.8829 286.31 108.537 288.679 111.07 295.992C111.565 290.522 112.006 284.968 112.466 279.462C112.611 277.71 112.865 275.745 114.249 274.657C117.264 272.282 121.259 276.585 121.785 280.387C122.48 285.391 121.114 290.431 120.794 295.478C120.474 300.524 121.549 306.229 125.701 309.106C130.276 312.279 136.453 310.762 141.886 309.529C147.319 308.296 154.01 307.885 157.436 312.279C158.784 314.002 159.358 316.207 159.606 318.383C161.739 336.78 143.288 353.545 147.192 371.646C150.692 387.879 160.295 397.851 142.883 409.763C135.746 414.646 128.107 416.683 119.621 414.066C113.131 412.06 107.419 408.167 101.696 404.517C89.8686 396.981 76.2039 393.107 63.5788 387.075C54.7611 382.863 46.2879 377.109 41.2717 368.721C36.2555 360.338 35.4517 348.904 41.3321 341.101C42.7161 339.264 44.4567 337.668 46.4451 336.526Z" fill="#F44E4E"/>
<path d="M131.829 415.843C131.351 415.843 130.904 415.54 130.753 415.057L85.1417 274.313C84.9483 273.721 85.2746 273.08 85.8669 272.887C86.4713 272.693 87.0998 273.019 87.2932 273.612L132.904 414.356C133.098 414.948 132.772 415.589 132.179 415.782C132.058 415.825 131.944 415.843 131.829 415.843Z" fill="white"/>
<path d="M122.726 387.764C122.618 387.764 122.515 387.746 122.406 387.716L67.5964 371.507C66.9981 371.332 66.6536 370.697 66.8289 370.099C67.0102 369.501 67.6387 369.156 68.2371 369.331L123.047 385.54C123.645 385.716 123.99 386.35 123.814 386.949C123.663 387.444 123.216 387.764 122.726 387.764Z" fill="white"/>
<path d="M105.6 334.925C105.449 334.925 105.291 334.894 105.146 334.828L84.1931 325.599C83.619 325.345 83.3591 324.681 83.6129 324.106C83.8668 323.532 84.5376 323.272 85.1057 323.526L106.059 332.755C106.633 333.009 106.893 333.674 106.639 334.248C106.452 334.671 106.041 334.925 105.6 334.925Z" fill="white"/>
<path fill-rule="evenodd" clip-rule="evenodd" d="M210.449 126.045C210.449 56.9479 266.462 0.929443 335.565 0.929443C404.661 0.929443 460.68 56.9418 460.68 126.045C460.68 195.148 373.494 353.068 335.565 353.068C301.031 353.068 210.449 195.142 210.449 126.045ZM250.386 128.662C250.386 175.705 288.522 213.841 335.565 213.841C382.609 213.841 420.744 175.705 420.744 128.662C420.744 81.6181 382.609 43.4827 335.565 43.4827C288.522 43.4827 250.386 81.6181 250.386 128.662Z" fill="#8C50FF"/>
<path d="M335.566 431.375C385.022 431.375 425.115 425.955 425.115 419.269C425.115 412.584 385.022 407.164 335.566 407.164C286.11 407.164 246.018 412.584 246.018 419.269C246.018 425.955 286.11 431.375 335.566 431.375Z" fill="#978CFF"/>
</svg>
