<svg width="613" height="434" fill="none" xmlns="http://www.w3.org/2000/svg"><path d="M310.151 432.086c136.605 0 247.344-4.314 247.344-9.637 0-5.322-110.739-9.637-247.344-9.637-136.604 0-247.344 4.315-247.344 9.637 0 5.323 110.74 9.637 247.344 9.637z" fill="#E3E5FC"/><path d="M531.328 103.595c-16.165-1.632-31.382-6.326-45.498-14.877-8.273-5.01-17.729-11.511-25.168-17.653-15.398-12.705-30.363-24.02-45.138-37.44-.154-.14-2.213-1.777-2.151-1.962 0 0-2.894 8.195-2.894 8.2 14.332 12.412 28.072 25.499 42.626 37.658 20.483 17.107 45.25 33.529 72.838 35.691 5.575.437 5.385-9.617 5.385-9.617zm3.042-21.935l.211 23.413 17.967 7.866s-10.276-16.576-7.774-30.816c2.502-14.239-10.404-.463-10.404-.463z" fill="#D4A79A"/><path d="M520.167 33.135s-4.216 5.097-1.055 21.447c3.161 16.35 8.854 30.445 13.771 29.688 13.6-2.09 18.754-11.408 23.793-19.377 6.178-9.77-4.108-34.738-4.108-34.738l-10.491-6.28-21.91 9.26z" fill="#EAC2AB"/><path d="M505.943 28.178c-2.831-9.648.031-20.726 8.499-26.46.968-.655 2.049-1.257 3.218-1.241 5.23.072 2.749 11.444 11.428 10.723 5.648-.469 10.152-4.505 15.732-5.06 7.074-.7 12.551 3.016 16.731 8.39 1.246 1.601 9.951 14.343 5.437 15.213 14.012-2.703.659 30.97-2.461 35.51-2.487 3.614-7.176 5.303-11.099 4.093 1.374-3.31 2.744-6.692 3.125-10.296.386-3.603 5.894-19.706-11.733-24.025-12.535-3.069-25.302 10.851-36.272-1.771-1.153-1.329-2.018-3.084-2.605-5.076z" fill="#4B369D"/><path d="M557.057 47.292s5.215-5.39 4.289 3.15c-.927 8.541-5.488 10.106-5.488 10.106l1.199-13.256z" fill="#EAC2AB"/><path d="M582.812 375.423l10.78 28.303 9.833-2.63-13.004-28.865c0 .005-5.575.669-7.609 3.192z" fill="#D4A79A"/><path d="M568.398 430.12c.35.587 3.83.35 4.35.355 5.37.077 13.622.469 18.24-2.636 4.499-3.027 7.392-8.226 11.366-11.871 2.796-2.563 6.363-4.118 9.668-5.935 3.65-2.008-3.773-18.657-8.201-15.964-3.583 2.183-1.822 8.216-10.96 7.433-7.83-.674-2.857 10.507-11.963 17.169-8.052 5.889-16.34 5.019-12.5 11.449z" fill="#F3AA02"/><path d="M553.099 270.801c5.503 27.228 15.737 52.236 30.388 75.526 7.145 11.361 9.678 14.723 17.055 25.904 10.523 15.949-17.868 25.719-26.028 28.154-5.343 1.596-13.369 1.704-13.194-2.949.051-1.37.942-2.677 1.668-3.969 6.61-11.805-.062-24.283-5.39-35.362-15.974-33.209-18.795-41.086-31.655-75.52-4.896-13.112-7.372-57.616-8.566-71.814-.731-8.69 6.589-44.535 21.642-34.471 9.369 6.265 5.179 28.324 4.551 37.23-.433 6.157-1.359 12.86-.211 19.13 2.363 12.88 7.14 25.276 9.74 38.141z" fill="#4B369D"/><path d="M549.135 386.625l-6.698 30.471 9.956 3.284 5.102-32.211c-.005.005-5.179-2.574-8.36-1.544z" fill="#EAC2AB"/><path d="M501.666 429.101s7.449 2.543 21.729 3.603c14.281 1.061 30.219 1.591 33.112-.53 2.898-2.121 4.762-20.134 0-20.134s-6.61 6.888-15.006.742c-7.192-5.267-12.937 4.664-25.457 7.31-12.52 2.651-17.591 3.711-14.378 9.009z" fill="#FDC510"/><path d="M526.164 398.553c.479-1.117 1.735-1.951 2.827-2.821 9.971-7.949 7.536-20.072 5.94-30.667-3.783-25.132 4.222-50.537 1.782-75.603-3.486-35.793-.984-49.158-6.59-73.075-2.038-8.69-4.849-22.126 8.592-19.583 6.368 1.205 12.654.968 19.001-.144 3.341-.587-.067-1.673 3.341-.587 11.609 3.707 10.693 14.713 9.689 25.436-1.488 15.877-2.42 37.683-3.187 53.807-1.091 22.857-4.896 45.739-2.183 68.421 1.329 11.115 2.873 22.198 4.356 33.292.864 6.471 6.275 20.649 2.646 26.507-4.984 8.041-27.187 1.225-34.605 1.045-5.575-.144-13.235-2.234-11.609-6.028z" fill="#5A54FF"/><path d="M522.412 147.106c3.366-13.663-.289-36.643 9.343-46.78.989-1.04 1.941-2.352 3.341-2.656 24.988-5.42 26.368 6.945 31.567 15.557 5.21 8.623-1.873 15.49.675 25.158 2.893 10.991 2.311 22.42 2.517 33.766.129 6.908-.808 10.296-.417 17.214.273 4.829-.051 8.392 1.05 13.102.731 3.13 5.926 14.054 4.731 17.24-.947 2.523-5.281 1.571-7.413 1.643-8.242.272-10.852.231-18.182-3.388-6.698-3.31-32.51 4.15-40.232 3.511-3.835-.319 5.282-18.893 7.017-25.863 4.113-16.52 2.085-25.457 3.789-37.122a120.209 120.209 0 012.214-11.382z" fill="#D7384E"/><path d="M535.096 97.67s-6.61 5.977-23.176-1.56l-5.478 17.117s16.005 7.66 23.63 1.869c6.568-4.983 4.849-17.081 5.024-17.426z" fill="#D7384E"/><path d="M566.242 170.313c-3.856 10.126-52.479 19.444-76.159 17.4-5.802-.499-11.913-1.241-15.805 3.475 2.77 1.343 4.85.489 7.841 1.04-3.552 3.166-7.104 6.337-10.656 9.503-1.097.978-2.312 2.486-1.668 3.861.473 1.019 1.709 1.256 2.754 1.24 6.893-.108 12.674-5.513 19.227-7.84 8.078-2.867 14.512-1.987 22.626-3.387 54.944-9.483 67.15-11.125 63.654-45.065-2.656-25.802-7.814-29.828-15.274-37.967-1.184-1.292-3.315-2.548-4.453-1.22-.566.664-.494 1.653-.34 2.512.876 4.84 3.311 9.22 5.272 13.73 4.808 11.068 6.306 33.992 2.981 42.718z" fill="#EAC2AB"/><path d="M558.313 133.603s-14.965-41.02-2.64-35.197c12.231 5.781 24.102 31.871 24.102 31.871l-20.375 8.664-1.087-5.338z" fill="#F44E4E"/><path d="M21.763 293.395c1.42 11.583 14.543 19.588 29.163 17.797l354.189-43.48c14.621-1.796 25.416-12.741 23.995-24.319l-2.667-21.709-407.347 49.997 2.667 21.714zM408.472 75.297c-1.75-14.275-15.145-24.484-29.766-22.687L24.516 96.09C9.897 97.886-.625 111.029 1.125 125.304l7.47 60.854 407.348-50.002-7.47-60.859z" fill="#978CFF"/><path fill="#4B369D" d="M8.582 186.147l407.327-49.987 10.496 85.525-407.327 49.987z"/><path d="M54.112 175.09c12.325 0 22.317-9.991 22.317-22.316s-9.992-22.317-22.317-22.317-22.316 9.992-22.316 22.317 9.991 22.316 22.316 22.316zm322.577 19.253l-57.416 7.048c-7.66.942-14.697-4.556-15.639-12.216l-3.758-30.6c-.942-7.66 4.556-14.697 12.216-15.639l57.415-7.048c7.66-.942 14.698 4.556 15.64 12.217l3.758 30.599c.942 7.66-4.556 14.697-12.216 15.639z" fill="#978CFF"/><path d="M46.972 216.315c0 14.728 12.051 26.78 26.78 26.78h356.851c14.728 0 26.78-12.052 26.78-26.78v-27.609H46.972v27.609zM457.377 37.66c0-14.728-12.051-26.78-26.779-26.78H73.747c-14.729 0-26.78 12.052-26.78 26.78v62.795h410.405V37.66h.005z" fill="#A7ADFF"/><path fill="#E3E5FC" d="M46.972 100.455h410.405v88.251H46.972z"/><path d="M102.014 78.412c12.325 0 22.316-9.992 22.316-22.317s-9.991-22.316-22.316-22.316-22.316 9.991-22.316 22.316 9.99 22.317 22.316 22.317zm315.106 58.249h-57.847c-7.717 0-14.033-6.317-14.033-14.034V91.801c0-7.716 6.316-14.033 14.033-14.033h57.847c7.717 0 14.034 6.317 14.034 14.033v30.826c0 7.717-6.312 14.034-14.034 14.034z" fill="#5A54FF"/><path d="M143.759 173.829H83.584c-3.98 0-7.233-3.254-7.233-7.233v-2.27c0-3.98 3.254-7.233 7.233-7.233h60.175c3.979 0 7.233 3.253 7.233 7.233v2.27c0 3.979-3.254 7.233-7.233 7.233zm93.78 0h-60.175c-3.979 0-7.232-3.254-7.232-7.233v-2.27c0-3.98 3.253-7.233 7.232-7.233h60.175c3.979 0 7.233 3.253 7.233 7.233v2.27c0 3.979-3.259 7.233-7.233 7.233zm93.775 0h-60.169c-3.98 0-7.233-3.254-7.233-7.233v-2.27c0-3.98 3.253-7.233 7.233-7.233h60.174c3.98 0 7.233 3.253 7.233 7.233v2.27c-.005 3.979-3.259 7.233-7.238 7.233zm92.607 0h-60.175c-3.979 0-7.233-3.254-7.233-7.233v-2.27c0-3.98 3.254-7.233 7.233-7.233h60.175c3.979 0 7.233 3.253 7.233 7.233v2.27c0 3.979-3.254 7.233-7.233 7.233z" fill="#fff"/><path d="M487.601 221.417a315.969 315.969 0 01-11.727 7.423c-4.304 2.558-9.06 1.194-10.857-2.842-4.958-10.98-13.292-20.381-20.345-31.212-3.32-5.101-5.415-7.351-.067-11.439 3.135-2.393 5.73-3.763 8.906-6.048 8.247-5.936 11.46-3.311 14.682.854 10.173 13.138 13.745 20.633 20.365 32.098 2.477 4.221 3.218 8.427-.957 11.166z" fill="#F3AA02"/><path d="M484.414 231.97a370.857 370.857 0 01-12.509 6.249c-4.561 2.142-9.689.459-10.142-3.855-1.807-17.148-5.791-20.896-17.688-30.538-3.588-2.909-3.645-8.561-.118-11.104 3.294-2.358 10.059-7.331 13.23-9.817 3.377-2.682 9.204.556 12.427 4.53 8.669 10.775 15.614 21.549 17.992 33.982.896 4.71 1.282 8.247-3.192 10.553z" fill="#FFD592"/><path fill-rule="evenodd" clip-rule="evenodd" d="M458.989 208.979c0 5.076 4.128 9.205 9.204 9.205 5.076 0 9.205-4.129 9.205-9.205 0-5.076-4.129-9.204-9.205-9.204-5.076 0-9.204 4.128-9.204 9.204zm1.93 0c0-4.01 3.264-7.274 7.274-7.274s7.274 3.264 7.274 7.274-3.264 7.274-7.274 7.274-7.274-3.264-7.274-7.274z" fill="#F3AA02"/></svg>