<svg data-name="A Human/Standing" xmlns="http://www.w3.org/2000/svg" width="314" height="368"><g data-name="Head/Front"><path data-name="Head" d="M126 111l8.262-38.51c-4.607-5.409-7.726-12.038-7.205-19.465 1.5-21.4 31.292-16.692 37.086-5.891s5.107 38.2-2.382 40.129c-2.987.77-9.349-1.116-15.825-5.019L150 111z" fill="#f1cfb0"/><path d="M150.464 34.685c-3.163-.519-11.68-.875-13.251-.875-1 0-2.091.229-2.686-.692-.487-.755-.308-2.031-.454-2.907-.169-1.017-.408-2.022-.651-3.023a30.741 30.741 0 00-3.192-8.109 24.924 24.924 0 00-11.814-10.7 37.937 37.937 0 00-17.936-2.463c-6.437.522-12.265 2.647-18.343 4.647a38.442 38.442 0 01-17.916 1.725c-6.1-.938-10.715-4.246-15.863-7.385C43.089 1.688 37.066-.414 30.835.069 25.02.52 19.659 2.922 14.85 6.129c-4.5 3-8.212 6.612-10.308 11.695C2.287 23.291 2.289 29.292 6 34.123c5.375 7 15.352 8.814 23.654 8.634A45.193 45.193 0 0043.7 40.183c6.046-2.126 11.27-5.731 16.926-8.655a44.044 44.044 0 018.274-3.311c2.791-.788 5.539-1.15 8.066.536a38.091 38.091 0 008.126 4.647 26.206 26.206 0 009.166 1.646c6.081-.047 12.075-1.942 17.981-3.211 4.816-1.035 9.969-2.066 14.879-1.071 2.049.415 5.041 1.272 5.781 3.4-12.454 2.257-17.346 17.66-13.835 28.967 1.895 6.1 13.286 13.237 17.715 10.029 2.806-2.033 1.1-4.7 0-6.463-2.111-3.373-2.834-7.707 1.073-10.055 3.37-2.026 6.913 2.785 6.98 2.779.926-.073 8.929-4.6 14.443-11.2 5.439.322 6.265-3.264 4.966-6.2s-9.407-6.621-13.777-7.336z" fill="#191847"/></g><g data-name="Bottom/Skinny Jeans 1"><ellipse data-name="Ballsy Ball" cx="77" cy="73.5" rx="77" ry="73.5" transform="translate(39 221)" fill="#ffe197"/><path d="M235.71 290.58c-6.368-22.307-11.213-41.937-12.437-49.268-2.92-17.48 22.461-18.5 25.816-9.811 5.078 13.149 13.943 56.351 24.594 121.606l-12.175 3.552c-12.811-28.357-22.078-53.051-25.798-66.079zm-122.822-22.914c11.756-4.647 52.924-19.189 72.779-23.3a1059.54 1059.54 0 0116.435-3.273c15.454-2.95 23.46 24.929 8.576 27.071-37.067 5.33-89.616 10.839-94.112 11.458a5.731 5.731 0 01-.778.053c-5.901.001-9.981-9.209-2.9-12.009z" fill="#f1cfb0"/><path data-name="Leg Back" d="M211.76 236.729a13 13 0 01-.172-3.313L148 201.047V194h7.562s92.277 23.513 94.307 30.137c.014.047.027.093.038.14l.093.125c12.191 16.767 19.493 98.624 21.89 104.753l-23.362 3.486C239.591 299.5 211 276.418 211.76 236.729z" fill="#1ca8ce"/><path data-name="Leg Front" d="M134.077 259.228l19.206-6.588c-5.817-1.164-11.176-2.2-15.76-3.008-29.614-5.194-38.249-21.046-33.143-55.632h54.562c8.913 2.561 55.232 21.985 79.265 32.316 15.906 6.838 10.892 31.488 1.884 37.9a.879.879 0 01-.5.781C206.268 278.811 177.732 278.14 159 277.47c-8.509-.3-15-.609-19 .443z" fill="#1ca8ce"/><path d="M119.357 266.599a2 2 0 00-2.336-1.717l-6.881 1.23a64.243 64.243 0 00-6.703 4.267l24.703 50.704s7.498-1.206 5.944-5.72-2.506-7.533-2.506-7.533l-.975-28.683a1 1 0 00-1.062-.965l-4.413.276s-3.76-3.046-4.96-5.51z" fill="#e4e4e4" data-name="Right Shoe"/><g data-name="Right Shoe"><path data-name="shoe" d="M258.474 350.033a2 2 0 00-2.566 1.348L254 358.106a64.242 64.242 0 00.9 7.894h56.4s2.2-7.268-2.538-7.848-7.87-1.047-7.87-1.047l-26.212-11.686a1 1 0 00-1.332.532l-1.685 4.088s-4.385 2.046-7.127 2.046z" fill="#e4e4e4"/></g></g><g data-name="Body/Long Sleeve 1"><path data-name="Skin" d="M45.789 252.268c-1.363-2.293-2.913-4.586-7.622-3.416-8.4 2.087-15.528 7.442-23.363.22-.963-.887-1.669-3.663 1.616-5.087 8.18-3.548 20.272-10.185 22.232-12.767q4.011-5.274 24.856-60.218L84 175.066q-30.912 57.608-33.155 61.065c-3.365 5.185-.225 14.687.934 19.691a6.313 6.313 0 01-1.427.178c-2.466 0-3.452-1.866-4.563-3.732zM210 166.617l36.234-15.917a85.87 85.87 0 0118.389-14.418c1.768-.563 4.787-.733 1.565 3.974s-6.4 9.8-5.112 11.45 5.017-.171 6.49 2.511q1.474 2.682-18.859 6.417l-27.137 20.805z" fill="#f1cfb0"/><path data-name="Coat Back" d="M139.695 94.331l8.645-1.484c18.833 18.264 26.523 62.148 39.073 67.955 11.864 5.49 28.687.173 48.674-7.006l6.124 13.682c-18.162 19.655-56.86 36.262-72.544 26.782-25.08-15.15-30.876-69.274-29.972-99.929z" fill="#ffb806"/><path d="M102 203h76.511c3.5 0 2.837-5.048 2.332-7.6-5.832-29.4-28.602-61.088-28.602-102.939L130.172 89C111.917 118.358 105.6 154.5 102 203z" fill="#ffb806"/><path data-name="Coat Front" d="M39 230.859Q54.5 134.756 128.748 89h8.738s29.719 101.306 16.386 135H85c1.09-16.437 4.583-33.819 9.369-50.767q-23.4 42.2-39.332 60.767z" fill="#ffb806"/></g></svg>