<svg width="200" height="45" fill="none" xmlns="http://www.w3.org/2000/svg"><g clip-path="url(#clip0)"><path d="M.96 39.06c-1.64 0-2.89-.3-3.75-.9l1.26-3.39c.54.38 1.2.57 1.98.57.6 0 1.07-.2 1.41-.6.34-.38.51-.96.51-1.74V16.86h4.68v16.11c0 1.88-.54 3.36-1.62 4.44-1.06 1.1-2.55 1.65-4.47 1.65zm3.75-24.45c-.86 0-1.56-.25-2.1-.75S1.8 12.74 1.8 12s.27-1.36.81-1.86 1.24-.75 2.1-.75c.86 0 1.56.24 2.1.72s.81 1.08.81 1.8c0 .78-.27 1.43-.81 1.95-.54.5-1.24.75-2.1.75zm22.91 2.25V33h-4.44v-1.92a6.37 6.37 0 01-2.22 1.62c-.86.36-1.79.54-2.79.54-2.12 0-3.8-.61-5.04-1.83-1.24-1.22-1.86-3.03-1.86-5.43v-9.12h4.68v8.43c0 2.6 1.09 3.9 3.27 3.9 1.12 0 2.02-.36 2.7-1.08.68-.74 1.02-1.83 1.02-3.27v-7.98h4.68zm8.805 2.13c.56-.78 1.31-1.37 2.25-1.77.96-.4 2.06-.6 3.3-.6v4.32c-.52-.04-.87-.06-1.05-.06-1.34 0-2.39.38-3.15 1.14-.76.74-1.14 1.86-1.14 3.36V33h-4.68V16.86h4.47v2.13zm14.755-2.37c2.5 0 4.42.6 5.76 1.8 1.34 1.18 2.01 2.97 2.01 5.37V33h-4.38v-2.01c-.88 1.5-2.52 2.25-4.92 2.25-1.24 0-2.32-.21-3.24-.63-.9-.42-1.59-1-2.07-1.74-.48-.74-.72-1.58-.72-2.52 0-1.5.56-2.68 1.68-3.54 1.14-.86 2.89-1.29 5.25-1.29h3.72c0-1.02-.31-1.8-.93-2.34-.62-.56-1.55-.84-2.79-.84-.86 0-1.71.14-2.55.42-.82.26-1.52.62-2.1 1.08l-1.68-3.27c.88-.62 1.93-1.1 3.15-1.44 1.24-.34 2.51-.51 3.81-.51zm-.36 13.47c.8 0 1.51-.18 2.13-.54.62-.38 1.06-.93 1.32-1.65v-1.65h-3.21c-1.92 0-2.88.63-2.88 1.89 0 .6.23 1.08.69 1.44.48.34 1.13.51 1.95.51zm28.351-5.1c0 .06-.03.48-.09 1.26h-12.21c.22 1 .74 1.79 1.56 2.37.82.58 1.84.87 3.06.87.84 0 1.58-.12 2.22-.36.66-.26 1.27-.66 1.83-1.2l2.49 2.7c-1.52 1.74-3.74 2.61-6.66 2.61-1.82 0-3.43-.35-4.83-1.05-1.4-.72-2.48-1.71-3.24-2.97-.76-1.26-1.14-2.69-1.14-4.29 0-1.58.37-3 1.11-4.26a7.876 7.876 0 013.09-2.97c1.32-.72 2.79-1.08 4.41-1.08 1.58 0 3.01.34 4.29 1.02 1.28.68 2.28 1.66 3 2.94.74 1.26 1.11 2.73 1.11 4.41zm-8.37-4.83c-1.06 0-1.95.3-2.67.9-.72.6-1.16 1.42-1.32 2.46h7.95c-.16-1.02-.6-1.83-1.32-2.43-.72-.62-1.6-.93-2.64-.93zm27.213-3.3L91.204 33h-4.83l-6.78-16.14h4.83l4.47 10.98 4.62-10.98h4.5z" fill="#462880"/><path d="M107.724 33.24c-1.72 0-3.27-.35-4.65-1.05-1.36-.72-2.43-1.71-3.21-2.97-.76-1.26-1.14-2.69-1.14-4.29s.38-3.03 1.14-4.29c.78-1.26 1.85-2.24 3.21-2.94 1.38-.72 2.93-1.08 4.65-1.08 1.7 0 3.18.36 4.44 1.08 1.28.7 2.21 1.71 2.79 3.03l-3.63 1.95c-.84-1.48-2.05-2.22-3.63-2.22-1.22 0-2.23.4-3.03 1.2-.8.8-1.2 1.89-1.2 3.27 0 1.38.4 2.47 1.2 3.27.8.8 1.81 1.2 3.03 1.2 1.6 0 2.81-.74 3.63-2.22l3.63 1.98c-.58 1.28-1.51 2.28-2.79 3-1.26.72-2.74 1.08-4.44 1.08zm17.399 0c-1.7 0-3.23-.35-4.59-1.05-1.34-.72-2.39-1.71-3.15-2.97-.76-1.26-1.14-2.69-1.14-4.29s.38-3.03 1.14-4.29c.76-1.26 1.81-2.24 3.15-2.94 1.36-.72 2.89-1.08 4.59-1.08 1.7 0 3.22.36 4.56 1.08 1.34.7 2.39 1.68 3.15 2.94.76 1.26 1.14 2.69 1.14 4.29s-.38 3.03-1.14 4.29c-.76 1.26-1.81 2.25-3.15 2.97-1.34.7-2.86 1.05-4.56 1.05zm0-3.84c1.2 0 2.18-.4 2.94-1.2.78-.82 1.17-1.91 1.17-3.27s-.39-2.44-1.17-3.24c-.76-.82-1.74-1.23-2.94-1.23s-2.19.41-2.97 1.23c-.78.8-1.17 1.88-1.17 3.24 0 1.36.39 2.45 1.17 3.27.78.8 1.77 1.2 2.97 1.2zm28.418-18.66V33h-4.47v-1.86c-1.16 1.4-2.84 2.1-5.04 2.1-1.52 0-2.9-.34-4.14-1.02-1.22-.68-2.18-1.65-2.88-2.91-.7-1.26-1.05-2.72-1.05-4.38 0-1.66.35-3.12 1.05-4.38.7-1.26 1.66-2.23 2.88-2.91 1.24-.68 2.62-1.02 4.14-1.02 2.06 0 3.67.65 4.83 1.95v-7.83h4.68zm-8.7 18.66c1.18 0 2.16-.4 2.94-1.2.78-.82 1.17-1.91 1.17-3.27s-.39-2.44-1.17-3.24c-.78-.82-1.76-1.23-2.94-1.23-1.2 0-2.19.41-2.97 1.23-.78.8-1.17 1.88-1.17 3.24 0 1.36.39 2.45 1.17 3.27.78.8 1.77 1.2 2.97 1.2zm28.842-4.41c0 .06-.03.48-.09 1.26h-12.21c.22 1 .74 1.79 1.56 2.37.82.58 1.84.87 3.06.87.84 0 1.58-.12 2.22-.36.66-.26 1.27-.66 1.83-1.2l2.49 2.7c-1.52 1.74-3.74 2.61-6.66 2.61-1.82 0-3.43-.35-4.83-1.05-1.4-.72-2.48-1.71-3.24-2.97-.76-1.26-1.14-2.69-1.14-4.29 0-1.58.37-3 1.11-4.26a7.876 7.876 0 013.09-2.97c1.32-.72 2.79-1.08 4.41-1.08 1.58 0 3.01.34 4.29 1.02 1.28.68 2.28 1.66 3 2.94.74 1.26 1.11 2.73 1.11 4.41zm-8.37-4.83c-1.06 0-1.95.3-2.67.9-.72.6-1.16 1.42-1.32 2.46h7.95c-.16-1.02-.6-1.83-1.32-2.43-.72-.62-1.6-.93-2.64-.93zm16.916 13.08c-1.34 0-2.65-.16-3.93-.48-1.28-.34-2.3-.76-3.06-1.26l1.56-3.36c.72.46 1.59.84 2.61 1.14 1.02.28 2.02.42 3 .42 1.98 0 2.97-.49 2.97-1.47 0-.46-.27-.79-.81-.99-.54-.2-1.37-.37-2.49-.51-1.32-.2-2.41-.43-3.27-.69-.86-.26-1.61-.72-2.25-1.38-.62-.66-.93-1.6-.93-2.82 0-1.02.29-1.92.87-2.7.6-.8 1.46-1.42 2.58-1.86 1.14-.44 2.48-.66 4.02-.66 1.14 0 2.27.13 3.39.39 1.14.24 2.08.58 2.82 1.02l-1.56 3.33c-1.42-.8-2.97-1.2-4.65-1.2-1 0-1.75.14-2.25.42-.5.28-.75.64-.75 1.08 0 .5.27.85.81 1.05.54.2 1.4.39 2.58.57 1.32.22 2.4.46 3.24.72.84.24 1.57.69 2.19 1.35.62.66.93 1.58.93 2.76 0 1-.3 1.89-.9 2.67-.6.78-1.48 1.39-2.64 1.83-1.14.42-2.5.63-4.08.63zm12.277 0c-.82 0-1.51-.28-2.07-.84-.56-.56-.84-1.26-.84-2.1 0-.86.28-1.55.84-2.07.56-.54 1.25-.81 2.07-.81.82 0 1.51.27 2.07.81.56.52.84 1.21.84 2.07 0 .84-.28 1.54-.84 2.1-.56.56-1.25.84-2.07.84z" fill="#8C50FF"/></g><defs><clipPath id="clip0"><path fill="#fff" d="M0 0h200v45H0z"/></clipPath></defs></svg>