<svg width="500" height="500" fill="none" xmlns="http://www.w3.org/2000/svg"><path d="M380.349 322.121c-8.358-18.543-59.283-34.585-59.283-34.585-27.16-9.576-27.342-19.139-27.342-19.139-53.439 105.285-93.972.285-93.972.285-3.719 14.202-58.674 30.892-58.674 30.892-16.042 6.181-22.845 15.433-22.845 15.433-23.766 35.207-26.539 113.63-26.539 113.63.311 17.882 8.008 19.748 8.008 19.748C154.36 472.772 240.026 477.1 240.026 477.1c88.011 1.853 152.063-24.996 152.063-24.996 9.291-5.857 9.563-10.509 9.563-10.509 6.492-56.173-21.303-119.474-21.303-119.474z" fill="#000"/><path d="M186.289 212.766c4.082 33.847 33.211 68.937 59.646 68.937 30.374 0 59.244-36.879 63.741-68.937 1.71-1.218 4.522-4.159 5.546-10.846 0 0 6.492-23.208-2.099-20.72 3.006-8.954 12.919-43.811-6.324-65.477 0 0-8.993-12.297-30.905-18.815-.764-.635-1.542-1.283-2.436-1.905 0 0 .479.557 1.192 1.529-1.244-.35-2.566-.66-3.874-.972-1.18-1.244-2.527-2.527-4.03-3.887 0 0 1.321 1.36 2.915 3.628-.609-.13-1.14-.285-1.736-.389a31.029 31.029 0 00-3.745-4.652s.648 1.218 1.49 3.136c-4.043-2.967-12.155-9.822-12.155-17.493 0 0-5.066 2.37-8.034 6.699 1.167-3.564 3.123-6.868 6.311-9.602 0 0-3.343 1.71-6.414 5.416-2.397 1.348-7.853 5.08-9.693 11.715l-1.736-.882c.855-1.878 2.047-3.861 3.68-5.857 0 0-2.371 2.113-4.445 5.482l-3.511-1.763a27.415 27.415 0 014.289-5.947s-1.892 1.45-3.888 3.9c.557-2.28.467-4.898-6.634 2.877 0 0-31.994 13.878-41.246 42.606 0 0-5.442 12.971 1.775 51.133-10.25-4.847-3.265 20.227-3.265 20.227 1.05 6.7 3.861 9.628 5.585 10.859zm58.13-133.08a20.708 20.708 0 00-3.551 8.164l-1.114-.428c.868-2.773 2.332-5.442 4.665-7.736z" fill="#000"/><circle cx="250" cy="250" r="232.5" stroke="#8C50FF" stroke-width="35"/></svg>