<svg xmlns="http://www.w3.org/2000/svg" xmlns:xlink="http://www.w3.org/1999/xlink" width="170" height="129.945"><defs><linearGradient id="b" x1=".557" y1=".577" x2="-.074" y2="1.489" gradientUnits="objectBoundingBox"><stop offset="0" stop-color="#010101" stop-opacity="0"/><stop offset=".95" stop-color="#010101"/></linearGradient><linearGradient id="a" x1=".247" y1=".813" x2="2.351" y2="-.881" gradientUnits="objectBoundingBox"><stop offset="0" stop-color="#fff" stop-opacity="0"/><stop offset=".95" stop-color="#fff"/></linearGradient><linearGradient id="c" x1=".394" y1=".873" x2="1.017" y2="-1.183" xlink:href="#a"/><linearGradient id="d" x1=".314" y1=".81" x2=".786" y2="-.752" xlink:href="#b"/><linearGradient id="e" x1="0" y1=".5" x2="1" y2=".5" xlink:href="#a"/><linearGradient id="f" x1=".001" y1=".499" x2="1.001" y2=".499" xlink:href="#b"/><linearGradient id="g" x1="-3.567" y1=".339" x2="-2.433" y2=".339" xlink:href="#b"/><linearGradient id="h" x1="2.85" y1=".391" x2="-16.851" y2="1.312" xlink:href="#a"/><linearGradient id="i" x1="0" y1=".5" x2="1" y2=".5" xlink:href="#b"/></defs><g transform="translate(0 -.002)"><path data-name="Path 205" d="M168.068 61.442c-2.721 9.14-7.733 17.4-12.577 25.606-2.23 3.757-4.49 7.676-4.972 12.016-.352 3.223.292 6.486.06 9.714-.651 9.222-8.539 16.736-17.364 19.5s-18.384 1.656-27.44-.249-18.01-4.58-27.252-4.892c-6.65-.222-13.261.773-19.831 1.8-7.967 1.247-16.1 2.494-24.04 1.1s-15.775-5.984-18.858-13.44c-3.839-9.272.5-20.061-1.871-29.817a31.044 31.044 0 00-3.414-8.13c-1.105-1.948-2.34-3.847-3.565-5.737a50.305 50.305 0 01-5.535-10.387 27.086 27.086 0 017.08-28.228c13.72-12.607 34.838-8.347 50.639-16.586 17.432-9.1 31.93-19.046 52.584-10.377 5.715 2.4 10.889 5.959 16.626 8.329 4.812 2 9.956 3.083 14.907 4.71l.447.155a56.086 56.086 0 017.114 2.934c6.486 3.243 12.223 7.855 15.631 14.164 4.544 8.375 4.345 18.673 1.631 27.815z" fill="#ffb806" opacity=".24"/><path data-name="Path 206" d="M147.273 17.935l-.284 20.507-5.019 2.756-1.272-15.274L89.753 59.85 63.189 37.732 10.509 74.65c-1.105-1.948-2.34-3.847-3.565-5.737l56.6-39.69 26.665 22.228 46.313-30.121c.05.015-13.293-4.667-13.293-4.667.394-.282 2.819-2.993 3.243-3.3 0 0 17.127 3.133 17.212 3.163a13.931 13.931 0 013.589 1.409z" fill="#ffb806" opacity=".24"/><rect data-name="Rectangle 34" width="25.115" height="8.798" rx="2.47" transform="translate(134.696 36.427)" fill="#ffb806" opacity=".24"/><rect data-name="Rectangle 35" width="36.003" height="12.612" rx="3.54" transform="translate(109.411 105.108)" fill="#ffb806" opacity=".24"/><rect data-name="Rectangle 36" width="32.785" height="11.614" rx="3.24" transform="translate(15.361 75.833)" fill="#ffb806" opacity=".24"/><rect data-name="Rectangle 37" width="25.586" height="9.923" rx="2.647" transform="translate(25.751 103.647)" fill="#ffb806" opacity=".24"/><g data-name="Group 7"><path data-name="Path 207" d="M101.891 60.569q0-9.167 4.7-14.274t13.1-5.106q8.606 0 13.261 5.016t4.657 14.057a24.717 24.717 0 01-2.036 10.764 15.217 15.217 0 01-5.88 6.536 18.2 18.2 0 01-9.584 2.329 20.546 20.546 0 01-9.651-2.018 15.056 15.056 0 01-6.184-6.373 22.569 22.569 0 01-2.383-10.931zm10.652.052q0 5.67 1.941 8.145a6.945 6.945 0 0010.592.05q1.881-2.427 1.881-8.706 0-5.286-1.963-7.733a6.4 6.4 0 00-5.326-2.422 6.261 6.261 0 00-5.159 2.469q-1.961 2.477-1.963 8.2z" fill="#ffb806" opacity=".37"/></g><g data-name="Group 8" opacity=".37" fill="#ffb806"><path data-name="Path 208" d="M32.663 67.209l10.193-.639a7.717 7.717 0 001.35 3.784 5.663 5.663 0 004.74 2.105 5.226 5.226 0 003.535-1.078 3.253 3.253 0 001.246-2.49 3.184 3.184 0 00-1.182-2.412q-1.182-1.065-5.488-2.011-7.048-1.587-10.048-4.211a8.466 8.466 0 01-3.026-6.693 9.09 9.09 0 011.549-5.049 10.3 10.3 0 014.657-3.742 21.629 21.629 0 018.526-1.36q6.645 0 10.133 2.472t4.151 7.863l-10.105.6a4.72 4.72 0 00-5.251-4.47 4.3 4.3 0 00-2.814.793 2.427 2.427 0 00-.945 1.928 1.928 1.928 0 00.781 1.5 8.755 8.755 0 003.595 1.277 44.906 44.906 0 0110.059 3.055 10.564 10.564 0 014.42 3.844 9.729 9.729 0 011.377 5.124 10.993 10.993 0 01-1.846 6.149 11.525 11.525 0 01-5.154 4.268 20.832 20.832 0 01-8.349 1.454q-8.841 0-12.248-3.4a13.424 13.424 0 01-3.856-8.661z"/><path data-name="Path 209" d="M69.485 44.01h28.709v7.4H80.221v5.508h16.671v7.073H80.221v6.835h18.488v7.85H69.485z"/></g><path data-name="Path 210" d="M32.948 61.691l10.193-.639a7.7 7.7 0 001.347 3.784 5.68 5.68 0 004.74 2.105 5.232 5.232 0 003.535-1.078 3.242 3.242 0 001.246-2.49 3.184 3.184 0 00-1.182-2.412q-1.183-1.07-5.488-2.011-7.049-1.584-10.05-4.208a8.481 8.481 0 01-3.028-6.693A9.09 9.09 0 0135.809 43a10.323 10.323 0 014.66-3.742 21.572 21.572 0 018.524-1.36q6.645 0 10.135 2.472t4.148 7.863l-10.1.591a4.72 4.72 0 00-5.248-4.47 4.283 4.283 0 00-2.814.793 2.427 2.427 0 00-.948 1.926 1.928 1.928 0 00.781 1.5 8.673 8.673 0 003.595 1.28 44.963 44.963 0 0110.067 3.058 10.562 10.562 0 014.423 3.844 9.759 9.759 0 011.377 5.131 11.011 11.011 0 01-1.843 6.149 11.547 11.547 0 01-5.157 4.268 20.767 20.767 0 01-8.347 1.454q-8.846 0-12.251-3.4a13.486 13.486 0 01-3.863-8.666z" fill="#fff"/><path data-name="Path 211" d="M69.767 38.491h28.709v7.4H80.503v5.51h16.673v7.072H80.503v6.835h18.494v7.84h-29.23z" fill="#fff"/><rect data-name="Rectangle 38" width="99.186" height="11.692" rx="3.6" transform="translate(34.462 89.45)" fill="#fff"/><path data-name="Path 212" d="M131.541 89.228a4.041 4.041 0 00-1.5-.282H38.064a4.111 4.111 0 00-4.108 4.1v4.49a4.111 4.111 0 004.108 4.1h91.99a4.126 4.126 0 004.1-4.1v-4.49a4.1 4.1 0 00-2.613-3.818zm1.609 8.317a3.1 3.1 0 01-3.1 3.1H38.064a3.106 3.106 0 01-3.106-3.1v-4.49a3.106 3.106 0 013.106-3.093h91.99a3.1 3.1 0 013.1 3.093z" fill="#ffb806" opacity=".24"/><g data-name="Group 9" opacity=".56" fill="#ffb806"><path data-name="Path 213" d="M38.019 96.42a1.342 1.342 0 00.671.2c.369 0 .541-.185.541-.417s-.145-.374-.519-.514c-.5-.18-.748-.456-.748-.791a.862.862 0 01.965-.821 1.4 1.4 0 01.688.172l-.127.372a1.083 1.083 0 00-.571-.162c-.3 0-.469.172-.469.382s.167.334.531.474c.486.182.733.427.733.843 0 .5-.382.838-1.045.838a1.6 1.6 0 01-.786-.192z"/><path data-name="Path 214" d="M40.668 95.634a.9.9 0 00.948.968 1.818 1.818 0 00.776-.145l.087.364a2.245 2.245 0 01-.93.175 1.3 1.3 0 01-1.377-1.412 1.348 1.348 0 011.312-1.5 1.184 1.184 0 011.155 1.317 2.256 2.256 0 01-.015.237zm1.5-.364a.728.728 0 00-.706-.826.836.836 0 00-.781.826z"/><path data-name="Path 215" d="M44.817 96.939l-.04-.352h-.018a1.045 1.045 0 01-.856.417.8.8 0 01-.856-.8c0-.676.6-1.045 1.681-1.04v-.055a.576.576 0 00-.634-.649 1.384 1.384 0 00-.728.21l-.117-.337a1.746 1.746 0 01.92-.249c.856 0 1.063.584 1.063 1.142v1.048a3.9 3.9 0 00.045.669zm-.075-1.427c-.554-.012-1.185.087-1.185.631a.449.449 0 00.479.484.693.693 0 00.676-.466.531.531 0 00.03-.162z"/><path data-name="Path 216" d="M46.051 95.015c0-.329 0-.614-.022-.873h.444l.017.549h.019a.841.841 0 01.776-.611.524.524 0 01.145.017v.479a.725.725 0 00-.175-.017.713.713 0 00-.681.654 1.32 1.32 0 00-.022.237v1.5h-.5z"/><path data-name="Path 217" d="M49.876 96.836a1.859 1.859 0 01-.8.162 1.33 1.33 0 01-1.392-1.429 1.419 1.419 0 011.5-1.484 1.7 1.7 0 01.706.145l-.117.394a1.165 1.165 0 00-.589-.135.975.975 0 00-1 1.058.96.96 0 00.97 1.048 1.456 1.456 0 00.624-.14z"/><path data-name="Path 218" d="M50.469 92.838h.5v1.746a.968.968 0 01.364-.359 1.07 1.07 0 01.521-.142c.377 0 .975.229.975 1.195v1.664h-.5v-1.606c0-.449-.167-.831-.646-.831a.731.731 0 00-.681.5.591.591 0 00-.035.249v1.686h-.5z"/></g><path data-name="Path 219" d="M134.152 93.045v4.49a4.049 4.049 0 01-1.636 3.265h-11.974V89.228h11a4.1 4.1 0 012.61 3.817z" fill="#ffb806"/><path data-name="Path 220" d="M125.826 97.31a3.525 3.525 0 113.522-3.523 3.525 3.525 0 01-3.522 3.523zm0-6.067a2.544 2.544 0 102.542 2.544 2.544 2.544 0 00-2.542-2.543z" fill="#fff"/><path data-name="Rectangle 39" fill="#fff" d="M127.069 96.257l.83-.656 2.336 2.955-.83.656z"/><path data-name="Path 221" d="M133.169 42.504q-4.555-4.715-12.949-4.722-8.2 0-12.8 4.8c-3.053 3.215-4.592 7.686-4.592 13.443a20.675 20.675 0 002.322 10.287 14.5 14.5 0 006.057 6.007 20.634 20.634 0 009.424 1.9 18.217 18.217 0 009.352-2.2 14.583 14.583 0 005.737-6.146 22.835 22.835 0 001.978-10.138q.011-8.497-4.529-13.231zm-19.931 13.572q0-5.4 1.9-7.715a6.109 6.109 0 014.74-2.31 1.625 1.625 0 01.312-.02 6.441 6.441 0 015.2 2.29 7.86 7.86 0 011.527 3.355 17.626 17.626 0 01.392 3.915c0 .883-.03 1.7-.09 2.46q-.319 3.966-1.746 5.737a6.959 6.959 0 01-10.347-.05c-1.247-1.547-1.878-4.059-1.888-7.566z" fill="#fff"/><path data-name="Path 222" d="M127.228 58.054q-.319 3.966-1.746 5.737a6.959 6.959 0 01-10.347-.05c-1.247-1.547-1.878-4.059-1.888-7.566a19.749 19.749 0 01.541-1.928 6.955 6.955 0 002.29-2.12c.876-1.295 1.327-2.881 2.422-3.991a6.7 6.7 0 001.075-1.137 2.28 2.28 0 00.312-.943 14.385 14.385 0 00-.03-2.07 6.665 6.665 0 01.983-3.545c2.08.03 4.128.973 6.169 1.345.893 1.5-.664 3.427-.232 5.124.152.6.554 1.115.723 1.719a4.777 4.777 0 01-.571 3.053 10.316 10.316 0 00-.484 1.417 8.184 8.184 0 00.783 4.955z" fill="#ffb806"/><path data-name="Path 223" d="M127.719 69.963q-.319 3.966-1.746 5.737a6.959 6.959 0 01-10.347-.05c-1.247-1.547-1.878-4.059-1.888-7.566a19.749 19.749 0 01.541-1.928 6.955 6.955 0 002.29-2.12c.876-1.295 1.327-2.881 2.422-3.991a6.7 6.7 0 001.075-1.137 2.28 2.28 0 00.312-.943 14.385 14.385 0 00-.03-2.07 6.665 6.665 0 01.983-3.545c2.08.03 4.128.973 6.169 1.345.893 1.5-.664 3.427-.232 5.124.152.6.554 1.115.723 1.719a4.777 4.777 0 01-.571 3.053 10.316 10.316 0 00-.484 1.417 8.184 8.184 0 00.783 4.955z" transform="translate(-.491 -11.909)" fill="url(#b)"/><path data-name="Path 224" d="M126.444 70.612a13.347 13.347 0 01-1.31 5.737 4.41 4.41 0 01-7.753-.05c-.933-1.547-1.407-4.059-1.414-7.563q.167-1 .407-1.928a6.276 6.276 0 001.716-2.12c.654-1.3 1-2.884 1.813-3.991a6.514 6.514 0 00.806-1.135 2.859 2.859 0 00.232-.945 19.119 19.119 0 00-.022-2.068 8.429 8.429 0 01.748-3.549c1.557.03 3.093.975 4.62 1.347.671 1.5-.5 3.425-.172 5.124.112.6.414 1.115.541 1.716a6.157 6.157 0 01-.429 3.056 13.344 13.344 0 00-.362 1.414 10.644 10.644 0 00.579 4.955z" transform="translate(-.491 -11.909)" fill="url(#a)"/><path data-name="Path 225" d="M121.393 60.838l.324-.362a7.938 7.938 0 01-1.746 5.176 5.977 5.977 0 00-1.424 2.123 9.926 9.926 0 004.281-6.411 5.838 5.838 0 01.838-2.669l.122 1.275a26.154 26.154 0 001.34-3.053c.075-.2.135-.461-.027-.6a.559.559 0 00-.317-.1c-1-.1-2.105-.429-2.619.584a10.421 10.421 0 00-.772 4.037z" transform="translate(-.491 -11.909)" fill="url(#c)"/><path data-name="Path 226" d="M120.438 41.091a6.927 6.927 0 00.249 2.652c.392.6 3.041 1.769 4.066 1.247a6.935 6.935 0 001.734-1.307l.516-1.9z" fill="#ffb806"/><path data-name="Path 227" d="M120.929 53a6.927 6.927 0 00.249 2.652c.392.6 3.041 1.769 4.066 1.247a6.935 6.935 0 001.734-1.307l.516-1.9z" transform="translate(-.491 -11.909)" fill="url(#d)"/><path data-name="Path 228" d="M119.884 37.782s1.13-15.466 7.164-17.16.748 20.555.748 20.555-7.912 6.034-7.912-3.395z" fill="#ffb806"/><path data-name="Path 229" d="M120.375 49.691s1.13-15.466 7.164-17.16.748 20.555.748 20.555-7.912 6.034-7.912-3.395z" transform="translate(-.491 -11.909)" fill="url(#e)"/><path data-name="Path 230" d="M119.17 35.053a11.423 11.423 0 00-3.4 4.53 11.559 11.559 0 00-.249 4.241c.027.382.107.841.464.978.4.155.8-.234 1.045-.589a14.424 14.424 0 012.7-3.435 2.18 2.18 0 00.534-.5 1.788 1.788 0 00.2-.93c.065-1.771.185-3.575.195-5.331a3.612 3.612 0 00-1.489 1.036z" fill="#ffb806"/><path data-name="Path 231" d="M119.661 46.962a11.423 11.423 0 00-3.4 4.53 11.559 11.559 0 00-.249 4.241c.027.382.107.841.464.978.4.155.8-.234 1.045-.589a14.424 14.424 0 012.7-3.435 2.18 2.18 0 00.534-.5 1.788 1.788 0 00.2-.93c.065-1.771.185-3.575.195-5.331a3.612 3.612 0 00-1.489 1.036z" transform="translate(-.491 -11.909)" fill="url(#f)"/><path data-name="Path 232" d="M130.021 36.659a11.44 11.44 0 012.23 5.206 11.411 11.411 0 01-.768 4.168c-.115.364-.3.791-.681.841-.432.055-.721-.417-.878-.821a14.424 14.424 0 00-1.814-3.976 2.2 2.2 0 01-.4-.6 1.821 1.821 0 01.022-.953c.357-1.746.666-3.515 1.075-5.238a3.779 3.779 0 011.214 1.373z" fill="#ffb806"/><path data-name="Path 233" d="M130.5 48.613a11.44 11.44 0 012.228 5.206 11.378 11.378 0 01-.768 4.168c-.115.364-.3.791-.681.838-.429.055-.721-.417-.878-.821a14.476 14.476 0 00-1.811-3.974 2.142 2.142 0 01-.4-.6 1.793 1.793 0 01.02-.953c.357-1.746.669-3.517 1.075-5.238a3.785 3.785 0 011.215 1.374z" transform="translate(-.491 -11.909)" fill="url(#g)"/><path data-name="Path 234" d="M123.658 61.963a8.232 8.232 0 00-.6 1.941c-.09.664-.015 1.34-.075 2a22.345 22.345 0 01-1.13 3.9 18.384 18.384 0 00-.334 5.767l2.213-7.119a11.123 11.123 0 00.5-2 15.591 15.591 0 00-.012-2.315 23.215 23.215 0 01.274-4.034 8.851 8.851 0 00-.836 1.86z" transform="translate(-.491 -11.909)" fill="url(#h)"/><circle data-name="Ellipse 6" cx="1.786" cy="1.786" r="1.786" transform="translate(124.044 28.929)" fill="#ffb806"/><circle data-name="Ellipse 7" cx="1.454" cy="1.454" r="1.454" transform="translate(124.363 29.256)" fill="url(#i)"/><rect data-name="Rectangle 40" width="34.604" height="12.121" rx="3.403" transform="translate(110.768 107.002)" fill="#fff"/><rect data-name="Rectangle 41" width="28.021" height="1.043" rx=".521" transform="translate(114.351 110.324)" fill="#ffb806" opacity=".24"/><rect data-name="Rectangle 42" width="19.722" height=".985" rx=".424" transform="translate(114.351 113.208)" fill="#ffb806" opacity=".24"/><rect data-name="Rectangle 43" width="34.604" height="12.121" rx="3.403" transform="translate(12.258 73.206)" fill="#fff"/><rect data-name="Rectangle 44" width="28.021" height="1.043" rx=".521" transform="translate(15.843 76.529)" fill="#ffb806" opacity=".24"/><rect data-name="Rectangle 45" width="19.722" height=".985" rx=".424" transform="translate(15.843 79.413)" fill="#ffb806" opacity=".24"/><rect data-name="Rectangle 46" width="25.115" height="8.798" rx="2.47" transform="translate(25.152 104.904)" fill="#fff"/><rect data-name="Rectangle 47" width="20.338" height=".756" rx=".378" transform="translate(27.754 107.316)" fill="#ffb806" opacity=".24"/><rect data-name="Rectangle 48" width="14.316" height=".716" rx=".309" transform="translate(27.754 109.409)" fill="#ffb806" opacity=".24"/><rect data-name="Rectangle 49" width="25.115" height="8.798" rx="2.47" transform="translate(135.521 33.693)" fill="#fff"/><rect data-name="Rectangle 50" width="20.338" height=".756" rx=".378" transform="translate(138.123 36.105)" fill="#ffb806" opacity=".24"/><rect data-name="Rectangle 51" width="14.316" height=".716" rx=".309" transform="translate(138.123 38.198)" fill="#ffb806" opacity=".24"/><path data-name="Rectangle 52" fill="#ffb806" opacity=".24" d="M53.884 91.147h.377v7.354h-.377z"/></g></svg>