<svg width="652" height="407" fill="none" xmlns="http://www.w3.org/2000/svg"><path d="M27.662 368.926c11.274 7.154 22.537 14.308 33.692 21.651-11.123-3.308-22.332-6.649-32.552-12.145-10.22-5.491-19.508-13.36-24.72-23.727-5.209-10.368-5.783-23.449.324-33.315 8.64-13.959 29.359-20.834 44.056-12.724 6.108 3.366 11.993 8.89 18.893 7.852 13.77-2.081 23.374-16.028 36.385-20.769 14.054-5.118 29.728-5.852 44.168-1.859 5.799 1.605 23.046 8.094 23.739-3.476.206-3.468-1.317-6.826-1.412-10.298-.467-16.738 45.863-1.112 55.644-9.206 8.139-6.736 10.022-17.904 17.575-25.296 8.91-8.721 20.398-14.353 30.253-21.88 11.878-9.079 23.797-24.922 17.916-40.605-2.644-7.047-8.492-13.663-6.966-21.035.899-4.354 4.236-7.732 7.417-10.835l26.424-25.805c2.003-1.953 4.421-4.059 7.199-3.714 3.206.398 5.127 4.043 4.971 7.269-.156 3.226-1.765 6.169-3.005 9.153-5.881 14.152-3.476 31.575 6.645 43.194 6.128 7.035 15.03 12.597 17.021 21.712 2.093 9.58-3.033 22.825 5.652 27.372 4.515 2.365 10.195.255 15.038 1.839 9.834 3.222 9.108 17.21 13.701 26.486 6.058 12.235 21.507 15.666 32.999 23.038 12.416 7.962 20.51 20.994 30.885 31.476 13.327 13.467 30.767 22.804 49.364 26.424 7.971 1.552 18.08 1.076 21.79-6.144 3.891-7.568-1.933-18.187 3.493-24.745 6.218-7.511 17.928-.973 26.399 3.854 12.917 7.363 28.009 9.633 42.657 12.202 14.645 2.569 29.736 5.783 41.717 14.587 11.981 8.808 19.992 24.729 15.199 38.803-5.365 15.757-23.543 22.865-39.944 25.706-61.09 10.577-122.701-10.524-184.418-16.402-63.093-6.004-126.091 3.961-188.851 9.248-64.726 5.454-127.281-.62-191.61-7.827" fill="#E3E5FC"/><path opacity=".27" d="M296.232 243.443c-.115 5.471.615 11-.39 16.381-1.006 5.376-4.281 10.819-9.551 12.296-7.425 2.081-16.762-3.981-22.414 1.26-4.31 3.998-2.43 11.25-4.778 16.639-4.765 10.943-22.726 8.295-29.92 17.818-2.553 3.378-3.526 8.081-7.068 10.404-4.289 2.808-9.908.714-14.875-.558-20.173-5.163-40.863 5.102-58.512 16.159a485.073 485.073 0 00-34.435 23.707c-2.34 1.765-4.774 3.694-5.783 6.444-1.605 4.355.894 9.12 3.796 12.74 13.561 16.906 41.479-.505 63.105.899 37.452 2.425 65.485-4.183 102.999-5.381 26.437-.846 50.534 4.022 76.547-.768 24.471-4.506 54.433 3.005 79.313 2.783 11.431-.103 23.777 2.048 33.595-3.805 1.317-.784 2.59-1.74 3.357-3.066 2.212-3.821-.603-8.545-3.575-11.804-11.845-12.978-49.843-8.217-60.006-22.553-27.113-38.253-39.759-36.603-69.799-47.029-3.903-1.354-7.979-2.721-10.909-5.631-2.931-2.91-4.285-7.88-1.852-11.217 2.254-3.086 6.74-3.686 9.35-6.481 5.525-5.922-.977-15.223-.931-23.321.02-3.337 1.223-6.546 1.691-9.846 1.526-10.754-9.346-27.389-21.61-23.555-11.858 3.694-17.128 27.269-17.345 37.485z" fill="#A7ADFF"/><path d="M293.318 159.652c-3.358 2.508-6.814 5.126-8.829 8.8-2.754 5.015 1.367 9.144 3.046 13.622 1.005 2.672 1.51 4.564.952 7.409-.472 2.401-3.538 4.937-1.712 7.498 2.566 3.567 7.179 1.482 9.666 6.473 2.036 4.084 1.24 8.878 3.858 12.765 2.713 4.03 7.331 7.187 9.03 11.849 1.789 4.901-2.171 12.116 3.296 15.552 2.914 1.834 6.994.279 9.083-2.459 4.391-5.758 4.326-16.5 5.422-23.35.509-3.181 2.729-7.384 5.664-6.054 1.843.838 4.35 14.123 8.2 7.249.755-1.351.653-2.997.53-4.536-.177-2.171-.907-4.617-.575-6.797 1.207-7.913 3.103-12.169.644-20.497-.262-.895-.459-2.027.267-2.614.382-.308.907-.353 1.396-.382 3.062-.193 6.604.008 8.245-3.206 1.769-3.464-2.376-6.091-3.55-8.992.234.582 8.439 2.934 9.769 3.665-2.512-6.001-8.562-10.635-14.723-12.416" fill="#F44E4E"/><path d="M297.397 188.371c.883 2.84 2.205 5.409 4.019 7.486 1.424 1.629 3.16 3.037 4.088 5.024.796 1.703.911 3.673 1.641 5.409 2.824 6.711 8.098-.451 9.953-3.776 2.299-4.108 4.573-5.319 8.899-5.257.484.008 1.026-.013 1.358-.382.312-.349.316-.887.247-1.363-.382-2.643-3.226-6.325-.444-8.578 1.1-.891 2.533-1.157 3.854-1.621 6.629-2.336 6.469-14.513 6.218-20.358-.094-2.2-.964-4.297-2.15-6.115-6.616-10.159-23.687-10.196-31.715-1.593-6.518 6.978-9.157 20.842-5.968 31.124z" fill="#D7384E"/><path d="M380.031 168.103c-3.53 2.812-29.186-16.512-54.215-38.786l28.378-22.607c16.015 29.453 29.051 58.832 25.837 61.393zm-124.379 0c3.53 2.812 29.186-16.512 54.215-38.786l-28.378-22.607c-16.015 29.453-29.051 58.832-25.837 61.393z" fill="#5A54FF"/><path d="M278.406 110.872c0 33.746 17.136 52.257 38.274 52.257 21.137 0 38.273-18.511 38.273-52.257 0-13.48-4.424-33.878-10.404-53.522h-56.033c-5.853 19.644-10.11 40.043-10.11 53.522z" fill="#A7ADFF"/><path d="M316.68 0c-6.969 0-19.369 27.82-28.169 57.35h56.034C335.552 27.82 323.025 0 316.68 0z" fill="#5A54FF"/><path d="M345.058 159.098h-56.756c-4.461 0-8.11-3.649-8.11-8.11 0-4.462 3.649-8.111 8.11-8.111h56.756c4.461 0 8.11 3.649 8.11 8.111 0 4.461-3.649 8.11-8.11 8.11z" fill="#978CFF"/><path d="M342.484 163.522h-51.608a2.221 2.221 0 01-2.213-2.212c0-1.215.998-2.212 2.213-2.212h51.608a2.22 2.22 0 012.212 2.212 2.218 2.218 0 01-2.212 2.212z" fill="#5A54FF"/><path d="M316.68 80.208c-11.098 0-20.091 8.997-20.091 20.091 0 .615.037 1.219.09 1.818 11.788-4.79 23.49-9.74 34.957-15.203-3.677-4.108-9.009-6.706-14.956-6.706z" fill="#fff"/><path d="M296.679 102.117c.92 10.244 9.518 18.273 20.001 18.273 11.098 0 20.091-8.997 20.091-20.091 0-5.147-1.954-9.83-5.135-13.385-11.467 5.463-23.169 10.413-34.957 15.203z" fill="#E3E5FC"/></svg>