<svg width="620" height="513" fill="none" xmlns="http://www.w3.org/2000/svg"><path d="M420.75 487.222c-.33-.747-.541-1.747.082-2.275.451-.382 1.12-.314 1.691-.172a10.537 10.537 0 014.919 2.756 14.522 14.522 0 01.052-6.654c.142-.575.412-1.236.996-1.352.751-.154 1.283.691 1.579 1.4l2.254 5.417a19.31 19.31 0 013.739-5.701c.249-.262.536-.536.901-.566.902-.082 1.176 1.193 1.086 2.09-.399 3.945-.695 12.272-5.391 13.037-4.683.755-10.186-4.087-11.908-7.98z" fill="#8C50FF"/><path d="M335.874 489.205c.297-.292.773-.288 1.185-.21 1.786.326 3.344 1.695 3.898 3.429a15.398 15.398 0 011.116-4.803c.262-.635.588-1.284 1.146-1.683.558-.399 1.412-.463 1.893.03.369.378.421.958.425 1.486a14.434 14.434 0 01-.631 4.314c2.421-2.859 5.142-5.903 8.83-6.577.467-.085 1-.116 1.365.189.626.515.317 1.528-.103 2.219-2.061 3.413-6.705 7.427-10.736 8.238-2.335.468-11.049-4.031-8.388-6.632z" fill="#F44E4E"/><path d="M289.545 454.062c113.905 0 206.243-8.423 206.243-18.814s-92.338-18.814-206.243-18.814-206.243 8.423-206.243 18.814 92.338 18.814 206.243 18.814z" fill="#E3E5FC"/><path d="M331.359 400.792c2.961-.21 5.206-3.262 7.503-5.628 2.296-2.365 5.743-4.168 8.087-1.867 2.936 2.885 1.571 9.761 4.619 12.453 7.992-.266 24.167-5.396 29.137.957 12.534 16.011 10.375 5.666 17.836 9.31.566.279 1.18.61 1.464 1.288.729 1.734-1.194 3.293-2.713 3.713-15.037 4.164-30.37 2.159-45.492.962-7.457-.593-14.707-1.983-22.124-.962-5.404.747-11.414 3.168-16.522-.15-5.984-3.889-10.379-16.573-6.696-24.42 7.477-15.921 16.989 4.906 24.901 4.344z" fill="#FDC510"/><path d="M333.286 417a.808.808 0 01-.67-1.253l9.925-14.831a.806.806 0 011.339.893l-9.924 14.831a.794.794 0 01-.67.36zm27.343 14.024a.805.805 0 01-.7-1.198l11.796-20.934a.804.804 0 011.4.79l-11.796 20.934a.796.796 0 01-.7.408z" fill="#fff"/><path d="M368.532 417a.804.804 0 01-.666-.352l-4.687-6.911a.803.803 0 111.331-.901l4.687 6.911a.806.806 0 01-.215 1.116.784.784 0 01-.45.137z" fill="#fff"/><path d="M453.871 463.66c.219 1.035 1.447 2.155 2.155 1.369.206-.231.271-.553.314-.858.528-3.597.266-7.834 3.047-10.173 1.013 1.897 2.022 3.794 3.035 5.687 1.43-5.284 3.095-10.929 7.366-14.35.082 2.456.168 4.907.249 7.362.017.455.06.97.408 1.258.661.545 1.605-.198 2.069-.919 1.704-2.64 2.593-5.924 5.056-7.877.455-.36 1.086-.669 1.589-.386.309.176.468.532.558.876.631 2.403-1.181 4.67-2.434 6.816a17.044 17.044 0 00-2.322 8.173c1.519-1.249 3.039-2.502 4.558-3.752.91-.751 2.443-1.429 3.078-.437.373.579.103 1.347-.249 1.936-.833 1.395-2.073 2.506-2.975 3.854-.901 1.352-1.446 3.147-.699 4.593a8.998 8.998 0 016.108-2.382c-3.438 1.983-3.79 6.812-6.241 9.933-4.211 5.361-16.801 8.138-22.708 4.138-2.841-1.923-4.254-5.357-5.039-8.577-.498-2.052-.919-4.417-.112-6.451 1.146-2.872 2.567-2.778 3.189.167z" fill="#E3E5FC"/><path d="M25.817 385.008c-1.494-2.18-2.953-4.541-3.043-7.147-.335-9.8 17.182-13.066 17.32-22.875.073-5.361-5.211-9.091-9.117-12.933-3.907-3.842-6.38-10.98-1.709-13.938 1.21-.768 2.687-1.051 3.962-1.713 4.211-2.184 5.057-7.851 3.49-12.186-1.567-4.335-4.863-7.855-7.34-11.783-9.667-15.341-5.932-34.86-1.897-52.356.755-3.271 2.927-7.443 6.31-6.585 2.069.524 3.043 2.739 3.725 4.684l8.757 24.875c1.245 3.532 3.224 7.666 7.091 8.087 7.705.837 8.843-13.019 16.53-13.972 5.023 4.202 5.397 11.486 4.748 17.844-.648 6.357-1.858 13.139 1.146 18.835 3.005 5.696 12.509 8.435 16.24 3.142 5 7.242-3.38 17.746.974 25.365 2.897 5.074 10.186 6.417 13.628 11.169 2.906 4.014 2.357 9.358 1.842 14.217-2.456 23.308-3.572 53.472-32.383 60.791-20.939 5.318-40.157-18.772-50.274-33.521z" fill="#8C50FF"/><path d="M9.295 402.672c-.901-.932-1.824-1.988-1.949-3.28-.292-3.03 3.537-4.494 6.512-5.125 2.975-.631 6.705-2.717 5.765-5.615-.245-.755-.79-1.369-1.352-1.927-2.868-2.876-6.443-5.039-8.993-8.203-2.546-3.168-3.82-7.962-1.417-11.233.691-.94 1.657-1.726 2.03-2.833.692-2.069-.94-4.108-2.287-5.821-3.572-4.537-13.084-24.721-1.782-26.378 3.67-.536 7.203 1.838 9.47 4.769 2.266 2.936 3.644 6.452 5.653 9.564 7.456 11.56 20.759 9.68 25.832 24.025.515 1.455 1.232 3.108 2.722 3.512 3.434.927 5.705-6.881 8.396-1.589 5.426 10.667 10.851 25.352 6.117 37.139-2.855 7.1-9.495 15.835-18.24 14.007-13.469-2.816-27.033-11.229-36.477-21.012z" fill="#F44E4E"/><path d="M46.988 413.721a.806.806 0 01-.717-.442L22.052 365.37a.804.804 0 01.357-1.082.804.804 0 011.082.356l24.218 47.909a.804.804 0 01-.721 1.168zm31.537 7.666a.802.802 0 01-.786-.644L53.71 302.214a.81.81 0 01.627-.949.807.807 0 01.95.631l24.029 118.53a.808.808 0 01-.627.948c-.06.005-.112.013-.163.013z" fill="#fff"/><path d="M62.514 339.061a.803.803 0 01-.33-.069.807.807 0 01-.404-1.064L72 315.225a.806.806 0 011.065-.404c.403.18.584.661.403 1.065l-10.22 22.703a.811.811 0 01-.734.472zm9.156 42.887a.82.82 0 01-.33-.069.808.808 0 01-.404-1.065l10.22-22.703a.805.805 0 011.065-.403c.403.18.584.661.403 1.064l-10.22 22.703a.806.806 0 01-.734.473zm-6.55-19.789a.824.824 0 01-.344-.077l-22.094-10.431a.801.801 0 01-.382-1.069.801.801 0 011.073-.382l22.094 10.431a.801.801 0 01-.348 1.528z" fill="#fff"/><path d="M28.11 402.839c10.782-4.194 22.638 1.378 33.013 6.495 10.375 5.117 22.875 9.89 33.044 4.361 12.573-6.838 14.526-9.589 28.184-1.468 8.856 5.258 34.637 13.242 44.531 15.14 7.383 1.412 71.805 13.976 16.93 12.328-15.586-.468-32.585-1.932-47.682-2.421-32.726-1.056-65.555-4.713-98.333-3.202-7.353.347-24.518 7.709-30.751 1.884-8.684-8.126 13.478-30.163 21.063-33.117z" fill="#FDC510"/><path d="M39.69 399.285a.661.661 0 01-.158-.017.799.799 0 01-.631-.944l3.34-16.685a.808.808 0 01.944-.631c.437.085.72.51.63.944l-3.339 16.685a.795.795 0 01-.785.648zm81.82 41.359a.806.806 0 01-.674-.365l-12.628-19.235a.799.799 0 01.231-1.112.8.8 0 011.112.232l12.629 19.235a.799.799 0 01-.232 1.111.766.766 0 01-.438.134zm-71.84-3.005a.804.804 0 01-.592-.262l-14.792-16.23a.807.807 0 01.052-1.138.807.807 0 011.137.052l14.792 16.23a.807.807 0 01-.596 1.348z" fill="#fff"/><path d="M43.03 430.35a.802.802 0 01-.648-1.283l6.64-8.946a.808.808 0 011.125-.167.802.802 0 01.167 1.124l-6.64 8.946a.796.796 0 01-.644.326zm72.166.674a.783.783 0 01-.352-.082l-14.595-7.117a.798.798 0 01-.369-1.073.806.806 0 011.073-.369l14.595 7.117a.799.799 0 01.369 1.073.791.791 0 01-.721.451zm-3.374-5.147a.862.862 0 01-.288-.051.808.808 0 01-.467-1.039l3.378-8.877a.805.805 0 011.506.575l-3.378 8.877a.803.803 0 01-.751.515z" fill="#fff"/><path d="M536.558 381.012c-.202-1.593-.232-3.421.919-4.542 2.743-2.665 7.692 1.971 10.963-.008 1.768-1.069 2.03-3.563 1.537-5.568-.494-2.004-1.533-3.889-1.662-5.945-.352-5.644 5.74-9.173 9.277-13.59 3.305-4.129 4.816-9.92 9.362-12.624 1.317-.786 2.987-1.241 4.382-.605 2.55 1.159 2.46 4.769 1.893 7.511-1.494 7.212-3.284 15.484 1.202 21.321 1.721 2.241 4.404 4.276 4.211 7.1-.206 2.996-3.576 4.761-4.636 7.568-1.296 3.438 1.193 7.357.21 10.899-1.025 3.704-5.301 5.43-7.464 8.61-1.009 1.486-1.546 3.28-2.704 4.649-5.083 6.001-14.359 1.43-18.209-3.314-4.988-6.138-8.281-13.603-9.281-21.462z" fill="#A7ADFF"/><path d="M441.852 374.908c10.744-4.855 22.669 1.876 33.108 8.057 10.44 6.181 23 11.972 33.113 5.529 12.508-7.971 14.431-11.212 28.185-1.438 8.92 6.327 34.803 16.08 44.723 18.432 7.405 1.755 72.003 17.35 17.076 14.8-15.603-.725-32.627-2.644-47.737-3.386-32.761-1.61-65.65-6.302-98.432-4.864-7.357.331-24.45 8.873-30.751 1.898-8.779-9.723 13.156-35.611 20.715-39.028z" fill="#E3E5FC"/><path d="M542.619 367.769c1.344-2.292 2.305-5.739-.124-7.035-.996-.532-2.219-.438-3.361-.326-3.782.369-7.559.734-11.341 1.103-1.202-4.58 1.537-9.306 5.026-12.715 3.49-3.412 7.804-6.069 10.951-9.756 3.146-3.688 4.945-9.01 2.481-13.127-2.464-4.116-10.315-4.679-12.075-.257 3.567-8.276 7.138-16.552 10.705-24.824.906-2.099 1.533-5.031-.562-6.164-1.052-.567-2.369-.369-3.546-.082-5.7 1.395-10.911 4.495-14.68 8.727 4.426-7.302-1.7-16.312-8.589-21.69-6.254-4.881-15.857-8.654-22.094-3.748-7.542 5.937-2.296 17.282-3.438 26.434-.223 1.798-.807 3.691-2.314 4.833-2.404 1.829-6.044 1.022-8.907 2.125-5.443 2.099-5.34 9.233-4.31 14.646 2.876 15.071 5.748 30.142 8.624 45.209l-14.882-11.229c-2.314-1.743-5.288-3.593-8.027-2.507-1.58.627-2.593 2.125-3.026 3.679-1.88 6.782 5.404 12.379 8.993 18.535 7.391 12.693-1.808 51.445 25.493 36.168 20.175-11.28 37.765-28.82 49.003-47.999z" fill="#8C50FF"/><path d="M553.642 402.17a.808.808 0 01-.781-1.009l8.577-32.666a.802.802 0 01.983-.575.807.807 0 01.575.983l-8.577 32.666a.805.805 0 01-.777.601z" fill="#fff"/><path d="M557.553 385.837a.805.805 0 01-.343-1.533l10.027-4.7a.803.803 0 11.682 1.455l-10.027 4.7a.775.775 0 01-.339.078zm-2.743 11.873a.805.805 0 01-.713-.434l-7.409-14.225a.805.805 0 011.426-.743l7.409 14.226a.805.805 0 01-.713 1.176zm-61.28 10.469a.802.802 0 01-.781-.996l22.578-91.821a.803.803 0 01.975-.588.802.802 0 01.588.974l-22.579 91.822a.802.802 0 01-.781.609z" fill="#fff"/><path d="M508.27 348.234a.796.796 0 01-.656-.343.802.802 0 01.197-1.121l20.171-14.122a.805.805 0 01.923 1.318l-20.171 14.122a.8.8 0 01-.464.146zM497.2 397.71a.806.806 0 01-.481-1.451l25.343-18.857a.804.804 0 01.962 1.292l-25.343 18.857a.81.81 0 01-.481.159z" fill="#fff"/><path d="M532.776 399.457c-3.3-1.112-7.288-1.511-10.293.077-4.443 2.344-5.112 8.053-9.856 9.954-5.91 2.37-12.62-3.039-19.097-2.111-5.542.794-9.109 5.983-14.702 6.443-2.666.218-5.245-.7-7.774-1.421-2.532-.721-5.404-1.241-7.816-.279-2.413.961-3.585 4.018-1.516 5.417.928.627 2.198.751 3.396.846 20.505 1.631 41.247 2.167 61.829 1.3 5.86-.249 15.891-.021 18.235-5.842 2.387-5.915-6.606-12.431-12.406-14.384z" fill="#F44E4E"/><path d="M526.952 420.486a.799.799 0 01-.773-1.026l3.636-12.697a.793.793 0 01.996-.55.8.8 0 01.549.996l-3.636 12.697a.811.811 0 01-.772.58z" fill="#fff"/><path d="M528.939 413.545a.797.797 0 01-.695-.404l-1.988-3.455a.807.807 0 01.296-1.099.808.808 0 011.099.296l1.988 3.456a.807.807 0 01-.7 1.206z" fill="#fff"/><path d="M347.674 423.104H233.506c-3.481 0-6.331-2.85-6.331-6.331v-1.151c0-3.481 2.85-6.331 6.331-6.331h114.168c3.482 0 6.332 2.85 6.332 6.331v1.151c0 3.481-2.85 6.331-6.332 6.331z" fill="#978CFF"/><path d="M312.214 423.104h-43.247c-2.717 0-4.941-2.223-4.941-4.94v-51.412c0-2.717 2.224-4.941 4.941-4.941h43.247c2.717 0 4.941 2.224 4.941 4.941v51.416c-.005 2.713-2.224 4.936-4.941 4.936z" fill="#978CFF"/><path d="M489.242 380.334H91.935c-7.482 0-13.603-6.122-13.603-13.603v-242.36c0-7.482 6.12-13.603 13.603-13.603h397.303c7.481 0 13.603 6.121 13.603 13.603v242.36c.004 7.481-6.117 13.603-13.599 13.603z" fill="#A7ADFF"/><path d="M98.61 117.039c-7.345 0-13.355 6.01-13.355 13.354v86.254c42.037-33.748 84.679-66.89 127.746-99.608H98.61z" fill="#EFF0FC"/><path d="M480.936 117.039H213.001c-43.067 32.718-85.709 65.864-127.746 99.608v123.165c0 7.345 6.01 13.354 13.355 13.354h382.326c7.344 0 13.354-6.009 13.354-13.354V130.393c0-7.344-6.01-13.354-13.354-13.354z" fill="#E3E5FC"/><path d="M289.773 368.701a3.691 3.691 0 100-7.382 3.691 3.691 0 000 7.382z" fill="#4B369D"/><path d="M435.281 261.675a2.403 2.403 0 01-1.593-.6L315.897 157.62a2.41 2.41 0 01-.219-3.403 2.407 2.407 0 013.404-.219l117.791 103.458c1 .88 1.099 2.404.219 3.404a2.397 2.397 0 01-1.811.815z" fill="#978CFF"/><path d="M301.079 175.082a4.015 4.015 0 01-2.833-1.167 4.025 4.025 0 01-.021-5.688l32.481-32.717a4.025 4.025 0 015.688-.022 4.025 4.025 0 01.021 5.688l-32.481 32.717a4.004 4.004 0 01-2.855 1.189z" fill="#978CFF"/><path fill="#4B369D" d="M392.096 251.065l1.606-.118 16.737 228.037-1.606.118zm37.525.001l1.606-.118 16.737 228.037-1.606.118z"/><path fill="#4B369D" d="M394.575 272.797H432.1v1.61h-37.525zm1.931 19.901h37.525v1.61h-37.525zm1.936 19.904h37.525v1.61h-37.525zm0 19.904h37.525v1.61h-37.525zm1.932 19.901h37.525v1.61h-37.525zm1.931 19.904h37.525v1.61h-37.525zm0 19.9h37.525v1.61h-37.525zm1.932 19.904h37.525v1.61h-37.525z"/><path d="M434.723 229.031l.596 11.105 8.693 3.352s-5.224-7.645-4.34-14.453c.88-6.816-4.949-.004-4.949-.004z" fill="#D4A79A"/><path d="M426.957 206.311s-1.893 2.506-.047 10.199c1.846 7.692 4.842 14.255 7.16 13.796 6.409-1.279 8.658-5.808 10.877-9.697 2.726-4.765-2.683-16.393-2.683-16.393l-5.112-2.756-10.195 4.851z" fill="#EAC2AB"/><path d="M428.258 200.305c-4.078 3.876-5.434 9.834-5.602 15.458-.086 2.846.086 5.726.863 8.465.863 3.056 2.451 5.846 3.765 8.735.227.502.45 1.03.403 1.579-.06.653-.489 1.202-.858 1.743-2.447 3.61-2.434 8.723.034 12.32.867 1.262 2.086 2.386 3.589 2.665 1.871.352 4.515-.279 5.146 1.52.314.897-.189 1.919.108 2.82.437 1.327 2.232 1.55 3.605 1.284 1.374-.267 2.893-.747 4.087-.018 1.567.962 1.618 3.49 3.249 4.336.614.318 1.335.322 2.031.322 2.85-.004 4.129 2.159 6.979 2.155 1.275-.005 4.207-2.202 5.254-2.928 1.048-.721 1.507-2.421.563-3.271-.915-.824-2.589-.455-3.323-1.442-1.172-1.588 1.76-3.567 1.275-5.482-.163-.648-.713-1.159-.833-1.815-.141-.782.352-1.52.58-2.284.747-2.49-1.348-4.872-3.37-6.503-2.022-1.631-4.374-3.516-4.365-6.113.008-3.069 3.374-5.241 3.704-8.297.352-3.262-2.88-6.083-2.605-9.349.167-1.992 1.622-3.692 1.832-5.679.245-2.292-1.189-4.387-2.554-6.246-1.021-1.391-2.069-2.807-3.485-3.786-1.919-1.326-3.413-.438-5.31-.944-1.691-.451-2.893-1.945-4.799-2.288-3.503-.631-7.396.605-9.963 3.043z" fill="#4B369D"/><path d="M462.105 354.724l10.43 10.526 3.877-3.125-11.534-10.332c0-.005-2.361 1.395-2.773 2.931z" fill="#D4A79A"/><path d="M466.822 384.605s2.936-2.318 7.035-7.74c4.104-5.425 8.418-11.645 8.319-13.345-.098-1.7-6.808-7.087-8.031-5.19-1.223 1.898 1.043 4.413-3.571 6.177-3.954 1.511-1.473 6.362-3.64 12.041-2.168 5.674-3.052 7.971-.112 8.057z" fill="#F3AA02"/><path d="M454.786 328.471c1.021 4.027 1.318 8.388 3.524 11.68 3.352 5.005 9.237 6.443 14.62 7.538-1.536 4.924-4.498 9.044-7.4 13.049-2.146 2.962-4.344 5.975-7.207 7.963-.97-3.825-1.953-7.688-3.683-11.131-1.546-3.073-3.64-5.722-5.456-8.593-5.391-8.529-8.186-18.836-10.894-28.936-1.413-5.271-11.655-46.54 2.296-37.027 9.469 6.456 7.207 17.882 14.2 45.457z" fill="#4B369D"/><path d="M430.121 370.092l-3.181 14.47 4.731 1.562 2.421-15.294s-2.46-1.223-3.971-.738z" fill="#EAC2AB"/><path d="M407.577 390.266s3.537 1.207 10.319 1.713c6.782.507 14.35.756 15.728-.253 1.378-1.009 2.262-9.564 0-9.564-2.263 0-3.138 3.271-7.126.352-3.417-2.502-6.143 2.215-12.088 3.473-5.949 1.262-8.357 1.764-6.833 4.279z" fill="#FDC510"/><path d="M417.823 373.32c.257-.516.88-.876 1.425-1.254 4.966-3.468 4.177-9.289 3.739-14.358-1.039-12.024 1.644-23.91 3.116-35.779 1.434-11.585 1.009-23.329-.927-34.833-.704-4.181-1.631-10.633 4.662-9.023 2.983.764 5.966.837 9.01.502 1.601-.176.017-.794 1.601-.176 5.391 2.103 1.266 7.521-.095 11.07-2.708 7.07-.133 20.832-.983 28.451-1.202 10.8-1.919 19.767-1.313 30.597.296 5.306.695 10.607 1.064 15.908.215 3.091 2.353 9.976.46 12.642-2.602 3.661-12.925-.236-16.432-.545-2.644-.232-6.211-1.455-5.327-3.202z" fill="#5A54FF"/><path d="M417.072 250.292c-4.902 3.704-11.521 10.276-16.239 2.635-2.468-4-4.211-8.392-6.516-12.487-1.635-4.245-3.597-8.726-3.447-13.371.155-4.743-.124-11.139-.579-12.302-.455-1.163-5.898-6.272-5.967-4.147-.069 2.125 3.039 9.925-1.004 6.233-1.215-1.108-.498.944-.086 3.413.412 2.468 3.704 5.734 3.704 5.734 3.267 13.728 2.318 29.996 17.501 36.736 4.215 1.871 10.847-4.177 14.229-6.254 1.198-.739 13.05-8.882 13.367-8.568l-4.185-4.113c-.335-.33-.7-.674-1.163-.742-.541-.082-1.056.232-1.502.545-2.228 1.562-4.177 3.477-6.268 5.22-.601.502-1.214.991-1.845 1.468z" fill="#EAC2AB"/><path d="M424.352 280.807c0-.511-.85-13.74 1.017-22.222 1.867-8.482 0-15.775 6.447-20.866 6.448-5.091 11.706 1.695 13.402 5.258 1.695 3.563.163 21.768.403 27.76.245 6.125 0 5.018 1.352 11.611.863 4.215 8.933 14.123-1.253 11.156-3.46-1.008-10.714-1.442-13.676-2.489-2.648-.936-5.786-1.597-7.881-3.765-.661-.678.189-6.443.189-6.443z" fill="#D7384E"/><path d="M420.75 244.522s11.908-12.693 16.475-6.932c4.567 5.761-11.598 17.638-11.598 17.638l-7.336-9.538 2.459-1.168z" fill="#F44E4E"/><path d="M205.087 60.574s-7.026 12.395-18.349 9.285c-11.322-3.11-19.176-19.42-22.555-17.608-3.379 1.812-11.479-.984-2.439-3.512 4.139-1.164 4.766-.985 5.236-.65 6.265 4.498 13.56 11.478 17.387 14.767 4.117 3.535 9.263.984 13.962-1.656 4.7-2.64 22.623-8.278 6.758-.626z" fill="#EAC2AB"/><path d="M212.695 37.373l1.611 11.813c2.865.85 5.841 2.439 8.861 2.439-.134-2.193-2.282-4.699-3.267-6.78-1.186-2.505 1.723-8.21 1.858-11.007.358-7.36-9.063 3.535-9.063 3.535z" fill="#D4A79A"/><path d="M210.077 19.542c-1.432-.38-5.549 1.163-6.221 2.483-1.611 3.222-.402 6.958-.783 10.74-.268 2.528 1.544 7.718 3.513 9.776 2.909 3.043 6.579-1.073 8.772-3.602 3.11-3.58 4.453-8.345 4.028-13.065-.157-1.7-.604-3.49-1.88-4.61-1.231-1.095-2.954-1.386-4.565-1.61-1.007-.179-1.879.157-2.864-.112zm-83.464 106.383l-8.526 9.732 2.954 3.177 8.279-10.672c.023 0-1.342-1.968-2.707-2.237z" fill="#EAC2AB"/><path d="M99.201 129.975s2.507 2.729 8.168 6.398c5.661 3.669 12.106 7.495 13.784 7.271 1.678-.223 6.534-7.226 4.565-8.322-1.97-1.074-4.297 1.342-6.355-3.088-1.768-3.803-6.4-1.006-12.173-2.752-5.796-1.722-8.123-2.438-7.989.493z" fill="#FDC510"/><path d="M155.478 94.894c-.895 0-1.834 0-2.64.358-.917.403-1.611 1.163-2.26 1.902a356.648 356.648 0 01-14.634 15.549c-4.901 4.877-10.025 9.687-16.201 12.797.515.984 1.634 1.477 2.64 1.947 4.163 1.924 7.899 4.81 10.853 8.345a11.79 11.79 0 013.513-7.249c1.41-1.365 3.133-2.349 4.789-3.401 7.406-4.788 13.515-11.343 20.698-16.466.313-.224.649-.47 1.029-.56.493-.134 1.03-.067 1.544.023a234.458 234.458 0 0034.058 2.908c2.64.023 5.929-.425 6.757-2.931 3.357-10.112-31.618-12.282-36.138-12.64-4.453-.336-9.577-1.164-14.008-.582z" fill="#4B369D"/><path d="M212.673 47.105c-4.632 1.745-9.801 7.697-11.457 10.158-5.057 7.472-1.947 14.386-9.353 25.236-.716 1.052-.47 2.573 0 3.737.693 1.745 2.595 2.595 4.296 3.356 6.691 2.998 12.889 7.047 18.282 11.991a295.513 295.513 0 005.75-44.544c.135-2.416.202-4.922-.783-7.137-1.521-3.4-4.028-3.826-6.735-2.797z" fill="#F44E4E"/><path d="M221.355 53.907c2.461 5.951.604 12.954 1.656 19.375 1.051 6.42.805 12.73 2.305 19.084.984 4.139 1.79 8.3 2.394 12.484.045.313.089.649.336.872.246.269.671.336 1.051.403 3.558.582 9.734.448 11.882 3.423-3.602 1.432-8.212.94-11.859-.291.648.672 1.297 1.32 1.946 1.992-1.477.715-3.311.067-4.453-1.097-1.141-1.163-1.767-2.729-2.349-4.251-3.245-8.457-6.758-16.802-8.123-25.84-.761-5.101-.738-10.314-1.857-15.37-.336-1.567-.806-3.133-.783-4.721.022-2.55 1.365-5.079 3.535-6.712.425-.313.918-.626 1.455-.738 1.007-.202 2.036.268 2.73.94.693.693 1.074 1.565 1.432 2.438m-63.818 61.995l-1.365 12.842 4.251.895.627-13.491c0 .023-2.26-.805-3.513-.246z" fill="#EAC2AB"/><path d="M141.247 137.559s3.177.716 9.107.492c5.93-.224 12.509-.738 13.605-1.745 1.097-1.007 1.029-8.502-.917-8.3-1.969.224-2.417 3.132-6.154.984-3.2-1.834-5.102 2.506-10.136 4.184-5.035 1.678-7.071 2.349-5.505 4.385z" fill="#FDC510"/><path d="M213.187 88.965c1.656.671 3.379 1.589 4.207 3.177.47.917.604 1.969.694 2.998.291 4.027-.358 8.435-3.245 11.231-1.409 1.365-3.244 2.238-5.079 2.953-4.341 1.723-9.13 2.797-13.695 1.746-5.012-1.141-9.107-4.676-12.553-8.502a66.14 66.14 0 01-7.742-10.538c-1.253-2.103-2.596-4.452-4.901-5.19-1.834 5.526-.492 11.589-1.118 17.383-.358 3.289-1.343 6.489-1.679 9.777-.335 3.289.112 6.869 2.238 9.397-1.79 1.7-4.654 1.007-7.093.559a25.308 25.308 0 00-9.175-.022c-.761.134-1.656.291-2.26-.224-.492-.403-.626-1.118-.582-1.767.09-2.17 1.477-4.05 2.171-6.108.828-2.416.694-5.056.828-7.607.425-8.546 3.759-16.735 4.028-25.281.067-2.439-.112-4.922.402-7.316.515-2.394 1.858-4.788 4.095-5.772 2.618-1.164 6.154-.985 8.324.895 1.343 1.163 15.239 10.09 27.233 15.795 4.744 2.304 9.957.447 14.902 2.416z" fill="#5A54FF"/><path d="M241.203 72.99c-.515-.021-1.007-.133-1.343-.491-.581-.627-.38-1.633-.492-2.484-.246-1.879-1.768-3.244-1.88-5.168-.134-2.237 1.231-4.295.515-6.6-.716-2.304-2.663-4.541-4.229-6.309-1.298-1.454-3.11-2.618-3.961-4.43-.805-1.7-.179-3.602.09-5.37.291-1.923-.56-2.908-.739-4.742-.112-1.23.56-2.394.448-3.625.179-.738.336-1.521.447-2.26.493-3.176-2.64-4.9-4.206-7.047-1.634-2.26-.045-6.175-1.925-8.837-2.528-3.557-7.854-4.05-11.792-3.267-2.909.582-4.14 2.394-6.243 4.184-.895.76-2.171.917-3.178 1.477-1.477.805-2.461 2.058-3.177 3.646a3.21 3.21 0 00-.269 1.298c.023.425.135.828.381 1.163.738 1.007 2.26 1.03 3.446.65 4.788-1.59 11.3-1.32 11.456 5.347.068 2.84-1.185 5.548-1.544 8.345-.402 3.11 3.581 4.474 4.789 6.779 1.186 2.26 2.014 5.19 1.969 7.785 0 0-2.014 3.468-1.812 7.227.156 2.975 2.036 2.975 3.625 4.05.984.67.425 3.467.671 4.474.47 1.901 2.036 3.177 2.663 4.989.671 1.969.582 3.244 2.506 4.564 4.05 2.797 9.532 2.125 13.471-.582.917-.626 3.088-2.125 2.953-3.49-.156-1.477-1.477-1.186-2.64-1.275zM485.87 6.74s1.869 4.155-1.052 6.713c-2.921 2.557-6.892.533-10.747 2.876-3.854 2.342-3.439 5.118-1.671 11.299 2.103 7.352 4.4 7.132 6.465 7.664 2.065.534 2.682 6.287 2.915 8.951.234 2.664.584 4.475-6.775 8.098-7.359 3.623-3.344 9.164-2.606 16.346.816 7.945-8.609 12.527-10.244 14.445-1.635 1.919-5.491 2.239-7.594-1.81-2.103-4.05 8.583-7.03 7.65-13.529-.935-6.499-6.641-10.872 1.42-17.265 8.06-6.393 6.468-11.505 3.781-16.725-2.686-5.22-3.971-7.245-1.753-13.957 2.219-6.713-.116-4.689 2.803-10.016 2.923-5.327 13.553-11.188 17.408-3.09z" fill="#4B369D"/><path d="M480.786 38.274l.587 10.939 8.562 3.302s-5.149-7.534-4.276-14.242c.873-6.707-4.873.001-4.873.001z" fill="#D4A79A"/><path d="M500.628 73.76s-.568-1.04-2.271-6.386c-1.703-5.346-2.318-7.334-4.683-12.507-2.365-5.174-7.286-8.406-7.286-8.406l-6.15-.331s-.758.046-4.305 2.98c-3.548 2.934-6.954 11.309-6.954 11.309l-1.514 16.654 10.646 7.854 7.524 2.712a5.52 5.52 0 01-.837-1.538c-1.26-3.747 2.964-24.5 3.106-26.346.143-1.846 3.717 15.756 3.717 15.756l3.095-.899 2.124 6.769 1.329-6.911 2.459-.71z" fill="#F44E4E"/><path d="M497.269 82.75l-.43-1.37-.686 3.57 1.116-2.2z" fill="url(#paint0_linear)"/><path d="M491.618 75.51s-3.574-17.6-3.717-15.755c-.142 1.845-4.366 22.598-3.106 26.346.182.542.475 1.054.837 1.538l7.74 2.79 2.781-5.48.686-3.57-2.124-6.769-3.097.9z" fill="#FDC510"/><path d="M491.618 75.51s-3.574-17.6-3.717-15.755c-.142 1.845-4.366 22.598-3.106 26.346.182.542.475 1.054.837 1.538l7.74 2.79 2.781-5.48.686-3.57-2.124-6.769-3.097.9z" fill="#D7384E"/><path d="M428.889 68.892l43.463 2.097 8.434 8.17-40.596-1.022-11.301-9.245z" fill="#000"/><path d="M469.873 72.307l-39.238-2.65c-1.061.082-1.981-.632-2.055-1.597l-7.907-21.217c-.075-.964.724-1.812 1.783-1.894l39.238 2.652c1.061-.082 1.981.632 2.055 1.597l7.907 21.217c.076.962-.724 1.81-1.783 1.892z" fill="#E3E5FC"/><path d="M450.188 60.409c.466-2.145-1.185-4.325-3.687-4.87-2.502-.543-4.908.755-5.374 2.9-.466 2.145 1.184 4.325 3.686 4.869 2.502.544 4.909-.754 5.375-2.9z" fill="#A7ADFF"/><path d="M411.009 106.568l-11.095 16.251 5.051 4.269 10.57-17.644c0-.002-2.423-2.728-4.526-2.876z" fill="#D4A79A"/><path d="M377.443 131.883s4.269 1.458 12.447 2.064c8.179.608 17.307.911 18.966-.303 1.659-1.214 2.726-11.534 0-11.534-2.725 0-3.786 3.946-8.593.424-4.118-3.017-7.409 2.672-14.58 4.188-7.171 1.517-10.076 2.126-8.24 5.161z" fill="#F3AA02"/><path d="M480.073 88.995c-.981-1.844-6.287-.805-12.645-3.17-6.361-2.365-10.468-7.334-17.694-13.059-7.226-5.724-6.732-4.732-9.85-4.968-3.118-.237-6.978 8.185-9.157 12.634-4.586 9.368-10.391 17.738-19.062 23.184-2.634 1.655-14.243 7.949-16.183 10.586-4.084 5.549 15.998 5.596 21.25 6.237 5.198.633 8.113-2.32 10.216-6.987 2.4-5.324 5.026-10.533 7.649-15.743 1.312-2.606 2.63-5.21 3.916-7.83.555-1.13 1.755-5.227 3.092-5.737 4.116-1.567 9.547 10.978 10.702 13.796 2.325 5.678 10.839 12.303 17.025 12.965 6.186.662 10.839-3.453 12.868-9.463 2.03-6.01-2.127-12.445-2.127-12.445z" fill="#4B369D"/><path d="M432.174 107.8l-11.095 16.251 5.051 4.268 10.57-17.643c-.002-.002-2.423-2.728-4.526-2.876z" fill="#EAC2AB"/><path d="M398.608 133.115s4.268 1.458 12.447 2.064c8.178.608 17.307.911 18.966-.303 1.659-1.214 2.726-11.534 0-11.534s-3.786 3.946-8.594.424c-4.118-3.017-7.409 2.672-14.58 4.188-7.171 1.517-10.077 2.126-8.239 5.161z" fill="#FDC510"/><path d="M496.133 88.995c-.936-1.844-6.009-.805-12.088-3.17-6.078-2.365-10.006-7.334-16.913-13.059-6.907-5.724-6.435-4.732-9.415-4.968-2.98-.237-6.671 8.185-8.753 12.634-6.404 13.685-19.584 22.869-31.579 31.318-.746.524-1.582 1.253-1.427 2.152.078.457.406.827.74 1.15 4.45 4.296 12.787 6.227 18.777 5.947 6.032-.282 9.306-5.315 11.585-10.293 4.076-8.905 8.057-18.082 13.009-26.534 1.86-3.173 7.79 9.637 8.305 10.83 3.072 7.121 9.168 14.969 17.494 15.901 5.913.662 10.36-3.453 12.301-9.463 1.938-6.01-2.036-12.445-2.036-12.445z" fill="#5A54FF"/><path d="M473.137 14.99s-4.573 3.372-2.753 10.948c1.819 7.577 7.478 14.047 9.761 13.59 6.314-1.26 8.528-5.722 10.717-9.551 2.685-4.696-2.646-16.152-2.646-16.152l-5.034-2.715-10.045 3.88z" fill="#EAC2AB"/><path d="M482.248 11.642s3.178 1.065 5.97 5.54c2.792 4.474.96 5.205.96 11.204 0 1.753-.328 3.48-1.278 4.974-.69 1.085-1.673 1.94-2.387 3.004-.901 1.342-1.189 2.857-1.116 4.459.153 3.387.694 6.199 3.701 8.111 3.252 2.067 4.768 4.828 5.623 8.559 1.023 4.466 8.386 6.994 10.956 5.29 2.569-1.705-5.096-.567-3.576-7.918 1.518-7.352 2.039-10.472-2.4-12.515-4.439-2.042-2.318-2.582.018-7.056 2.336-4.475-3.686-4.42-1.309-12.209 2.744-8.99.258-19.009-13.177-16.239-13.434 2.77-1.985 4.796-1.985 4.796z" fill="#4B369D"/><path d="M478.977 20.197c3.855-2.344 2.921-4.188 5.842-6.744 2.92-2.558 1.052-6.713 1.052-6.713-3.854-8.098-14.485-2.238-17.406 3.09-2.921 5.327-.583 3.303-2.803 10.016-1.53 4.626-1.394 7.026-.281 9.78l6.283 2.545c-2.544-9.652 4.413-10.212 7.313-11.974z" fill="#4B369D"/><path d="M494.619 82.466s0 2.601-.994 2.129c-.994-.473-10.313-6.293-11.543-7.665-1.231-1.372-4.117-6.34-4.258-7.334-.142-.993.332-1.04-1.609-.757-1.939.283-5.441 1.373-4.919 1.986.519.616 1.986.19 1.986.19s-1.718 1.088-.883 1.23c.834.143 3.295-.332 3.295.426s-.142 3.312.426 4.59c.568 1.277 1.277 1.703 3.122 2.129 1.846.425 2.172.283 3.688 1.845 1.517 1.563 9.985 9.084 11.073 9.463 1.087.379 1.56 1.041 2.886-1.373 1.326-2.413 2.271-4.258 2.365-8.043.094-3.785-.332-7.428-.332-7.428l-4.21.758c.003 0 .38 4.258-.093 7.854z" fill="#EAC2AB"/><path d="M508.24 34.403c.755-3.458 2.439-6.905 3.676-10.225.657-1.764 2.101-4.143 2.248-6.033.049-.62.64-1.078 1.32-1.025l25.202-1.704c.681.053 1.194.597 1.146 1.217l-5.079 13.627c-.048.62-.639 1.079-1.32 1.026l-20.325 1.298c-1.245.757-3.221 1.513-4.468 2.266-1.383.835-3.092 2.726-2.4-.447z" fill="#E3E5FC"/><path d="M526.479 25.726l8.189-.356c.552-.024.982-.494.958-1.045a1.005 1.005 0 00-1.046-.958l-8.189.356a1.004 1.004 0 00-.957 1.046c.024.55.494.98 1.045.957zm-5.889-3.392l14.836-.644c.551-.025.982-.494.958-1.046a1.005 1.005 0 00-1.046-.958l-14.836.644a1.004 1.004 0 00-.957 1.046c.024.55.493.982 1.045.958z" fill="#fff"/><path d="M434.46 37.5c-.873-4.003-2.822-7.993-4.256-11.836-.76-2.04-2.433-4.794-2.603-6.982-.056-.717-.739-1.249-1.527-1.187l-29.172-1.971c-.788.06-1.382.691-1.326 1.408l5.879 15.774c.056.716.739 1.248 1.527 1.186l23.527 1.505c1.442.874 3.727 1.752 5.172 2.623 1.602.965 3.581 3.154 2.779-.52z" fill="#E3E5FC"/><path d="M413.349 27.457l-9.479-.412a1.165 1.165 0 01-1.109-1.211 1.165 1.165 0 011.211-1.11l9.478.413a1.164 1.164 0 011.109 1.21 1.166 1.166 0 01-1.21 1.11zm6.816-3.927l-17.174-.745a1.165 1.165 0 01-1.109-1.21 1.165 1.165 0 011.211-1.11l17.174.746a1.165 1.165 0 011.109 1.21 1.166 1.166 0 01-1.211 1.11z" fill="#fff"/><g opacity=".72"><path d="M450.476 14.148c-.562-2.577-1.818-5.146-2.739-7.62-.489-1.314-1.566-3.087-1.676-4.496-.036-.462-.475-.803-.983-.764L426.295 0c-.507.04-.889.445-.854.906l3.784 10.155c.037.463.476.804.984.764l15.148.969c.929.563 2.4 1.127 3.33 1.688 1.032.622 2.305 2.032 1.789-.334z" fill="#E3E5FC"/><path d="M436.883 7.68l-6.103-.264a.749.749 0 01-.714-.78.75.75 0 01.779-.713l6.103.265a.75.75 0 01.714.78.75.75 0 01-.779.713zm4.389-2.527l-11.057-.48a.749.749 0 01-.714-.779.749.749 0 01.779-.713l11.057.48a.749.749 0 01.714.779.749.749 0 01-.779.713z" fill="#fff"/></g><path d="M451.62 28.842l-9.478-.412a1.164 1.164 0 01-1.109-1.211 1.164 1.164 0 011.21-1.11l9.479.413a1.165 1.165 0 011.109 1.21 1.166 1.166 0 01-1.211 1.11zm.946 4.632l-9.479-.412a1.164 1.164 0 01-1.109-1.211 1.165 1.165 0 011.211-1.11l9.478.413a1.164 1.164 0 011.109 1.21 1.163 1.163 0 01-1.21 1.11zm1.68 4.756l-9.479-.412a1.165 1.165 0 01-1.109-1.21 1.165 1.165 0 011.211-1.11l9.479.413a1.165 1.165 0 011.109 1.21 1.165 1.165 0 01-1.211 1.11z" fill="#E3E5FC"/><path d="M42.492 319.874s-7.387 9.762-7.836 16.838c-.448 7.075 18.305 9.911 18.305 9.911l-10.468-26.749zm20.907-27.137l-.778 14.718-11.545 4.448s6.94-10.151 5.773-19.166c-1.197-9.016 6.55 0 6.55 0z" fill="#D4A79A"/><path d="M73.717 262.614s2.513 3.314.06 13.524c-2.453 10.21-6.43 18.897-9.511 18.3-8.524-1.702-11.485-7.702-14.446-12.867-3.619-6.329 3.56-21.734 3.56-21.734l6.788-3.642 13.55 6.419z" fill="#EAC2AB"/><path d="M82.78 259.867c.747-2.388-.569-5.463-2.303-6.926-.659-.567-1.526-.925-2.363-.836-.628.06-1.257.358-1.885.269-1.884-.329-2.123-3.105-3.888-3.672-1.316-.418-2.572.776-3.918 1.074-1.017.239-2.063-.029-3.08-.238-2.872-.597-5.504-1.971-8.435-2.329-2.482-.299-5.054-.03-7.297 1.164-2.333 1.254-4.008 3.553-4.905 6.21-.539 1.582-.718 3.373-.27 4.986-.358-1.344-2.751.089-3.17.627-1.525 2.059-1.794 6.538-.987 8.956.658 1.91 1.705 3.582 2.303 5.523.688 2.299.987 4.866 2.273 6.896 1.466 2.329 4.367 3.523 6.88 2.896-.778-2.12-1.526-4.299-1.676-6.568-.15-2.269-3.17-12.569 8.076-14.778 4.456-.895 9.84 2.836 14.326 3.016 2.124.089 4.247-.329 6.25-1.135 1.526-.627 3.052-2.926 3.889-4.597.03-.18.12-.359.18-.538z" fill="#4B369D"/><path d="M50.06 270.495s-3.141-3.523-2.782 1.851c.329 5.404 3.17 6.508 3.17 6.508l-.389-8.359z" fill="#EAC2AB"/><path d="M23.291 477.265l-6.79 17.823-6.19-1.642 8.195-18.182c0-.029 3.499.389 4.785 2.001z" fill="#D4A79A"/><path d="M32.383 511.686c-.209.359-2.422.209-2.751.239-3.38.06-8.584.299-11.515-1.672-2.841-1.91-4.666-5.164-7.178-7.463-1.765-1.612-4.008-2.597-6.102-3.732-2.303-1.254 2.393-11.732 5.175-10.061 2.273 1.374 1.136 5.165 6.909 4.687 4.934-.418 1.794 6.628 7.537 10.808 5.114 3.702 10.348 3.164 7.925 7.194z" fill="#F3AA02"/><path d="M35.853 413.646c-2.752 14.986-8.524 28.63-17.078 41.228-4.157 6.15-8.644 12.061-12.95 18.092-6.162 8.598 14.715 10.628 19.859 12.18 3.38 1.015 8.374 1.284 8.135-1.313-.06-.747-.658-1.523-1.137-2.239-4.396-6.718-.568-13.495 2.483-19.525 9.122-18.062 15.313-38.87 22.461-57.678 2.722-7.165 1.496-14.211 1.885-22.062.239-4.807-8.106-26.003-17.228-20.779-5.683 3.254-2.542 15.614-1.914 20.57.419 3.433 1.166 7.165.598 10.628-1.136 7.045-3.798 13.792-5.114 20.898z" fill="#4B369D"/><path d="M58.105 483.265l4.217 19.197-6.28 2.059-3.231-20.27c.03-.03 3.29-1.642 5.294-.986z" fill="#EAC2AB"/><path d="M88.043 510.015s-4.695 1.612-13.698 2.269c-9.002.656-19.052 1.015-20.876-.329-1.825-1.343-2.99-12.688 0-12.688s4.157 4.329 9.451.478c4.546-3.314 8.165 2.925 16.061 4.597 7.896 1.642 11.096 2.329 9.062 5.673z" fill="#FDC510"/><path d="M74.465 488.639c-.3-.716-1.107-1.224-1.795-1.791-6.28-5.016-4.755-12.628-3.738-19.316 2.392-15.822-.18-31.765-1.137-47.617-.927-15.435.628-30.959 4.157-46.005 1.287-5.464 3.051-13.942-5.413-12.33-4.008.746-7.986.597-11.993-.09-2.094-.358.03-1.044-2.094-.358-7.328 2.329-10.05 16.151-8.554 20.958 2.991 9.583 3.978 18.778 4.457 28.928.688 14.39 3.08 28.81 1.375 43.08-.837 6.986-1.824 13.972-2.751 20.957-.539 4.061-3.948 13.017-1.675 16.689 3.14 5.075 17.138.776 21.833.657 3.5-.06 8.345-1.374 7.328-3.762z" fill="#5A54FF"/><path d="M68.214 334.861c-2.124-8.598.18-23.078-5.892-29.466-.628-.657-1.286-1.314-2.094-1.672-7.626-3.433-12.232 2.836-15.522 8.24-3.29 5.433-3.2 11.314-4.816 17.375-1.824 6.926-1.465 14.121-1.585 21.256-.09 4.358.449 8.657.21 13.016a53.68 53.68 0 01-1.287 9.016c-.448 1.97-3.05 5.881-2.302 7.882.598 1.582 3.32.985 4.665 1.044 5.204.18 10.289-1.373 14.925-3.642 4.217-2.09 7.925-5.314 12.8-5.732 2.423-.209 10.05.776 8.943-3.612-2.602-10.389-5.563-19.256-6.64-26.6-.358-2.329-.807-4.717-1.405-7.105z" fill="#D7384E"/><path d="M78.832 342.055s8.912 9.852 10.378 8.449c1.435-1.403 28.114-29.824 29.43-32.929 1.316-3.105 4.516-12.061 4.187-13.852-.329-1.791-1.196-1.612 2.363-2.239 3.529-.627 10.259-.806 9.69.567-.538 1.373-3.349 1.493-3.349 1.493s3.619.895 2.243 1.612c-1.376.746-5.922 1.343-5.474 2.657.449 1.313 1.107 4.329.868 6.866-.239 2.538-1.226 3.702-4.187 5.523-2.961 1.821-3.47.538-5.205 4.15-1.734 3.582-27.874 34.75-29.55 36.064-1.674 1.313-2.093 2.716-5.802-.687-3.708-3.403-10.228-11.852-15.462-17.315-4.786-5.016-6.76-12.061-6.76-12.061l7.747-1.135c.03-.03.957 5.344 8.883 12.837z" fill="#EAC2AB"/><path d="M73.089 329.397s-6.161-19.883-14.087-16.091c-7.926 3.791 3.23 25.018 3.23 25.018l12.89-6.389-2.033-2.538z" fill="#F44E4E"/><defs><linearGradient id="paint0_linear" x1="501.893" y1="68.049" x2="482.693" y2="61.261" gradientUnits="userSpaceOnUse"><stop stop-color="#A7ADFF"/><stop offset="1" stop-color="#E3E5FC"/></linearGradient></defs></svg>