<svg width="659" height="451" fill="none" xmlns="http://www.w3.org/2000/svg"><path d="M638.048 343.271H223.229c-11.196 0-20.354-9.158-20.354-20.354V20.354C202.875 9.16 212.033 0 223.229 0h414.819c11.196 0 20.354 9.159 20.354 20.354v302.563c.005 11.191-9.158 20.354-20.354 20.354z" fill="#A7ADFF"/><path d="M625.327 314.637H233.99c-11.196 0-20.354-9.159-20.354-20.355V35.281c0-11.196 9.158-20.355 20.354-20.355h391.337c11.195 0 20.354 9.159 20.354 20.355v259.001c0 11.196-9.159 20.355-20.354 20.355zm-170.626 12.975h-31.949a1.417 1.417 0 01-1.412-1.413c0-.779.638-1.412 1.412-1.412h31.949c.778 0 1.412.638 1.412 1.412 0 .779-.634 1.413-1.412 1.413zM227.181 11.53a3.178 3.178 0 100-6.355 3.178 3.178 0 000 6.356z" fill="#E3E5FC"/><path d="M240.862 11.53a3.178 3.178 0 100-6.354 3.178 3.178 0 000 6.355z" fill="#fff"/><path d="M254.67 11.53a3.178 3.178 0 100-6.354 3.178 3.178 0 000 6.355z" fill="#4B369D"/><path d="M332.738 184.715h-77.466a3.792 3.792 0 01-3.78-3.78 3.793 3.793 0 013.78-3.781h77.466a3.793 3.793 0 013.78 3.781 3.792 3.792 0 01-3.78 3.78zm0 17.307h-77.466a3.792 3.792 0 01-3.78-3.78 3.792 3.792 0 013.78-3.78h77.466a3.792 3.792 0 013.78 3.78 3.792 3.792 0 01-3.78 3.78zm0 17.303h-77.466a3.792 3.792 0 01-3.78-3.78 3.792 3.792 0 013.78-3.78h77.466a3.792 3.792 0 013.78 3.78 3.79 3.79 0 01-3.78 3.78zm0 19.513h-77.466a3.793 3.793 0 01-3.78-3.781 3.792 3.792 0 013.78-3.78h77.466a3.792 3.792 0 013.78 3.78 3.793 3.793 0 01-3.78 3.781zm0 17.303h-77.466a3.793 3.793 0 01-3.78-3.781 3.792 3.792 0 013.78-3.78h77.466a3.792 3.792 0 013.78 3.78 3.79 3.79 0 01-3.78 3.781zm0 17.307h-77.466a3.792 3.792 0 01-3.78-3.78 3.792 3.792 0 013.78-3.78h77.466a3.792 3.792 0 013.78 3.78 3.792 3.792 0 01-3.78 3.78zm115.919-88.733h-77.465a3.793 3.793 0 01-3.781-3.78 3.794 3.794 0 013.781-3.781h77.465a3.793 3.793 0 013.78 3.781 3.792 3.792 0 01-3.78 3.78zm0 17.307h-77.465a3.793 3.793 0 01-3.781-3.78 3.793 3.793 0 013.781-3.78h77.465a3.792 3.792 0 013.78 3.78 3.792 3.792 0 01-3.78 3.78zm0 17.303h-77.465a3.793 3.793 0 01-3.781-3.78 3.793 3.793 0 013.781-3.78h77.465a3.792 3.792 0 013.78 3.78 3.79 3.79 0 01-3.78 3.78zm0 19.513h-77.465a3.794 3.794 0 01-3.781-3.781 3.793 3.793 0 013.781-3.78h77.465a3.792 3.792 0 013.78 3.78 3.793 3.793 0 01-3.78 3.781zm0 17.303h-77.465a3.794 3.794 0 01-3.781-3.781 3.793 3.793 0 013.781-3.78h77.465a3.792 3.792 0 013.78 3.78 3.79 3.79 0 01-3.78 3.781zm0 17.307h-77.465a3.793 3.793 0 01-3.781-3.78 3.793 3.793 0 013.781-3.78h77.465a3.792 3.792 0 013.78 3.78 3.792 3.792 0 01-3.78 3.78z" fill="#fff"/><path d="M552.565 109.454c-8.918-2.231-11.15-28.987-20.069-28.987-19.594 1.779-26.384 27.742-37.417 47.209 1.444 8.023 8.484 14.166 16.909 14.166h78.511c9.457 0 17.194-7.737 17.194-17.194V68.356c-2.725.218-5.51 1.196-8.298 3.188-15.61 13.382-26.761 42.37-46.83 37.91z" fill="#A7ADFF"/><path d="M590.639 45.2h-78.511c-9.457 0-17.194 7.737-17.194 17.194v62.254c0 1.032.109 2.042.285 3.029 11.028-19.472 17.824-45.431 37.418-47.21 8.918 0 11.15 26.76 20.069 28.988 20.069 4.459 31.219-24.529 46.829-37.911 2.789-1.992 5.573-2.975 8.299-3.188v-5.962c0-9.457-7.737-17.194-17.195-17.194z" fill="#fff"/><path d="M562.534 85.207c5.466 0 9.897-4.431 9.897-9.897 0-5.465-4.431-9.896-9.897-9.896-5.465 0-9.896 4.43-9.896 9.896 0 5.466 4.431 9.897 9.896 9.897z" fill="#A7ADFF"/><path d="M271.851 143.821h160.227c11.196 0 20.354-9.159 20.354-20.355V65.563c0-11.196-9.158-20.354-20.354-20.354H271.851c-11.196 0-20.354 9.158-20.354 20.354v57.903c-.005 11.191 9.158 20.355 20.354 20.355zm243.442 74.051h72.041c11.196 0 20.355-9.158 20.355-20.354s-9.159-20.354-20.355-20.354h-72.041c-11.196 0-20.355 9.158-20.355 20.354 0 11.191 9.159 20.354 20.355 20.354zm0 51.067h72.041c11.196 0 20.355-9.158 20.355-20.354s-9.159-20.355-20.355-20.355h-72.041c-11.196 0-20.355 9.159-20.355 20.355s9.159 20.354 20.355 20.354z" fill="#fff"/><path d="M438.729 446.886c82.747 0 149.828-4.575 149.828-10.218 0-5.644-67.081-10.218-149.828-10.218-82.748 0-149.828 4.574-149.828 10.218 0 5.643 67.08 10.218 149.828 10.218z" fill="#E3E5FC"/><path d="M264.182 408.635h-76.338c-4.278 0-7.773-3.499-7.773-7.773v-2.929c0-4.278 3.5-7.773 7.773-7.773h76.338c4.278 0 7.773 3.499 7.773 7.773v2.929c0 4.274-3.499 7.773-7.773 7.773zm0 20.088h-76.338c-4.278 0-7.773-3.5-7.773-7.774v-2.929c0-4.278 3.5-7.773 7.773-7.773h76.338c4.278 0 7.773 3.5 7.773 7.773v2.929c0 4.279-3.499 7.774-7.773 7.774zm0 20.291h-76.338c-4.278 0-7.773-3.5-7.773-7.774v-2.929c0-4.278 3.5-7.773 7.773-7.773h76.338c4.278 0 7.773 3.5 7.773 7.773v2.929c0 4.274-3.499 7.774-7.773 7.774z" fill="#A7ADFF"/><path d="M187.564 401.369a2.119 2.119 0 10-.001-4.237 2.119 2.119 0 00.001 4.237zm76.333 0a2.12 2.12 0 100-4.239 2.12 2.12 0 000 4.239zm-75.908 19.367a2.119 2.119 0 10.001-4.237 2.119 2.119 0 00-.001 4.237zm76.333 0a2.118 2.118 0 10.002-4.236 2.118 2.118 0 00-.002 4.236zm-76.333 21.043a2.119 2.119 0 100-4.237 2.119 2.119 0 000 4.237zm76.333 0a2.118 2.118 0 10.002-4.236 2.118 2.118 0 00-.002 4.236z" fill="#fff"/><path d="M318.839 67.424c.263-.181.521-.362.783-.539 8.24-5.6 18.1-10.24 27.874-8.325 17.231 3.372 25.149 22.41 36.141 33.881 7.886 8.231 20.096 14.397 31.912 13.174 9.901-1.023 11.64-11.743 9.268-19.815-.879-2.98-2.237-5.831-4.7-7.814-2.268-1.83-7.868-4.35-10.815-2.748 5.079-2.757 11.685-1.385 16.216 2.2 15.325 12.129 11.459 38.069-4.966 47.187-12.722 7.058-28.254.847-38.287-8.09-11.336-10.1-14.853-25.769-25.406-36.485-2.825-2.865-5.999-5.383-10.277-5.025-8.471.71-9.86 9.688-15.547 14.166-1.466 1.154-3.4 1.865-5.215 1.435-1.336-.317-2.454-1.195-3.631-1.906-5.346-3.246-20.567-2.676-12.839-12.753 2.608-3.396 5.976-6.103 9.489-8.543z" fill="#FDC510"/><path d="M227.34 161.776c-3.98 4.432-9.127 9.738-11.445 15.41-.186.457-.344.996-.118 1.435 2.988 5.75 47.531-35.968 52.262-40.301 9.956-9.122 19.227-16.121 27.856-26.588 1.657-2.01 3.355-4.179 3.771-6.805.245-1.629-7.361 1.757-8.837 2.508-11.295 5.741-24.555 15.814-33.782 24.348-10.299 9.53-20.295 19.512-29.707 29.993z" fill="#4B369D"/><path d="M314.52 87.891c-.258-2.132-.774-4.21-1.589-6.166-1.933-4.649-5.455-9.081-10.634-10.09 8.402 5.292.353 15.605-5.696 19.783a25.318 25.318 0 01-4.912 2.644c-4.531 1.834-10.544 3.25-11.698 8.783 14.836.394 25.896-5.704 34.529-14.954z" fill="#F44E4E"/><path d="M279.991 102.84c-.009.05-.027.096-.036.145-1.684 8.865 4.038 17.779 13.808 16.153 13.604-2.268 22.382-17.887 20.757-31.25-8.633 9.253-19.693 15.351-34.529 14.952z" fill="#A7ADFF"/><path d="M49.24 418.142c-2.686-2.988-5.32-5.989-6.135-9.896-.421-2.024.28-4.794 2.34-4.912 1.037-.059 1.947.625 2.866 1.109 3.536 1.874 3.558-2.341 2.585-4.572-1.711-3.935-4.328-7.86-3.748-12.111.036-.267.095-.548.28-.747.276-.294.738-.294 1.137-.244 2.72.357 5.523 3.893 8.325 2.739 6.845-2.816.924-18.539.457-23.392-.09-.928-.167-1.92.281-2.735.87-1.584 3.246-1.616 4.803-.706 2.39 1.399 3.749 4.115 6.357 5.22 2.055.869 4.395-.127 5.908-1.594 4.55-4.409 5.609-11.612 9.194-16.728 2.934-4.187 11.092-10.557 15.66-4.889 2.092 2.594.842 6.379-.014 9.598-.796 2.983-1.448 6.492-1.145 9.575.226 2.259 1.19 4.549 3.042 5.862 3.599 2.549 10.363 2.631 6.642 8.697-1.141 1.856-2.911 3.233-4.274 4.935-1.363 1.702-2.313 4.052-1.431 6.044 1.608 3.635 12.387 4.975 8.258 10.684-1.032 1.43-2.676 2.263-4.201 3.146-7.38 4.265-.756 8.009-2.182 13.872-.512 2.109-2.11 3.825-3.957 4.957-2.97 1.82-6.574 2.512-9.752 3.898-6.456 2.82-12.228 7.017-17.624 11.499-3.957 3.287-10.164 10.625-16 7.08-3.598-2.186-1.353-8.325-1.023-11.521.648-6.216-2.693-10.467-6.65-14.868z" fill="#FDC510"/><path d="M59.484 449.099a.842.842 0 01-.792-1.145l27.095-72.046a.843.843 0 011.091-.493c.44.163.661.651.494 1.091l-27.096 72.046a.853.853 0 01-.792.547z" fill="#fff"/><path d="M78.67 399.291a.842.842 0 01-.706-.376.852.852 0 01.236-1.177l13.183-8.787a.847.847 0 011.177.235.852.852 0 01-.235 1.177l-13.184 8.788a.921.921 0 01-.47.14zm-9.556 26.222a.845.845 0 01-.707-.376.852.852 0 01.236-1.177l13.183-8.788a.848.848 0 011.177.236.848.848 0 01-.235 1.177l-13.184 8.787a.855.855 0 01-.47.141zm3.155-12.885a.846.846 0 01-.715-.389l-8.39-13.093a.85.85 0 011.43-.915l8.39 13.093a.846.846 0 01-.715 1.304z" fill="#fff"/><path d="M42.226 445.518c-11.376 1.29-22.382.018-26.927-11.739-1.635-4.233-4.03-5.899-8.285-7.099-2.07-.584-4.238-1.254-5.709-2.825-1.467-1.571-1.879-4.341-.285-5.785 1.272-1.155 3.205-1.042 4.912-.865 2.83.299 5.663.593 8.493.892.403.04.828.081 1.19-.095 1.205-.584.449-2.413-.443-3.409a281.714 281.714 0 00-10.286-10.906c-1.304-1.309-2.667-2.685-3.2-4.455-.535-1.77.094-4.043 1.828-4.686 2.404-.896 5.22 1.711 7.488.516 1.625-.855 1.825-3.123 1.4-4.907-.426-1.784-1.264-3.568-.942-5.374.307-1.725 1.76-3.183 3.485-3.49 1.72-.313 3.595.547 4.482 2.055.978 1.657.915 4.025 2.522 5.084 1.35.887 3.192.326 4.532-.57 1.344-.897 2.512-2.119 4.043-2.64 2.594-.887 5.758.838 6.424 3.495.66 2.649-.865 5.7.507 8.063 1.276 2.2 4.364 2.499 6.858 1.997 2.495-.503 5.003-1.54 7.502-1.046.86.167 1.761.593 2.11 1.394.38.878-.014 1.893-.485 2.726-1.426 2.503-3.59 4.531-4.948 7.071-1.358 2.54-1.68 6.039.408 8.022 1.095 1.046 2.625 1.454 4.01 2.074 1.382.62 2.78 1.661 2.975 3.164.33 2.54-2.707 4.007-4.274 6.031-2.037 2.625-1.534 6.315-1.611 9.638-.222 9.457-9.471 9.254-16.502 7.524" fill="#8C50FF"/><path d="M43.816 447.438a.844.844 0 01-.793-.548l-15.696-41.723a.842.842 0 01.494-1.091.851.851 0 011.09.493l15.692 41.719a.842.842 0 01-.493 1.091.754.754 0 01-.294.059z" fill="#fff"/><path d="M32.701 418.59a.853.853 0 01-.47-.14l-7.634-5.089a.85.85 0 01-.235-1.177.846.846 0 011.177-.235l7.633 5.088a.85.85 0 01.235 1.177.842.842 0 01-.706.376zm5.532 15.189a.854.854 0 01-.47-.14l-7.633-5.089a.85.85 0 01-.236-1.177.846.846 0 011.177-.235l7.633 5.088a.85.85 0 01.236 1.177.855.855 0 01-.706.376zm-1.824-7.461a.85.85 0 01-.715-1.308l4.857-7.583a.849.849 0 011.43.914l-4.857 7.583a.848.848 0 01-.715.394z" fill="#fff"/><path d="M148.041 407.481l2.884 27.285-9.023 1.902-1.317-28.649s4.776-1.742 7.456-.538z" fill="#EAC2AB"/><path d="M185.39 449.235s-6.759 1.499-19.344 1.032c-12.586-.466-26.566-1.557-28.888-3.689-2.327-2.137-2.196-18.064 1.964-17.598 4.161.462 5.107 6.665 13.043 2.11 6.8-3.902 10.852 5.338 21.536 8.874 10.68 3.535 15.008 4.952 11.689 9.271z" fill="#FDC510"/><path d="M171.85 415.023c-.422-.983-1.526-1.716-2.486-2.481-8.769-6.99-6.628-17.652-5.224-26.969 3.327-22.101-.236-44.38-1.567-66.486-1.295-21.577.865-43.231 5.795-64.264 1.793-7.642 4.265-19.458-7.556-17.222-5.6 1.06-11.128.852-16.71-.126-2.938-.516.059-1.472-2.938-.516-10.209 3.259-14.025 22.554-11.929 29.277 4.174 13.387 5.532 26.235 6.211 40.41.96 20.101 4.306 40.224 1.92 60.171-1.168 9.774-2.526 19.521-3.83 29.278-.761 5.69-5.519 18.158-2.327 23.31 4.382 7.072 23.908 1.078 30.432.919 4.903-.127 11.639-1.965 10.209-5.301z" fill="#4B369D"/><path d="M203.857 348.554l-6.012 27.145-9.281-1.077 7.954-27.951c0 .005 5.152-.14 7.339 1.883z" fill="#EAC2AB"/><path d="M233.976 388.874s-6.836 1.58-19.589 1.227c-12.757-.353-26.932-1.327-29.309-3.468-2.377-2.141-2.395-18.281 1.825-17.851 4.219.43 5.237 6.705 13.233 2.015 6.849-4.016 11.046 5.306 21.907 8.787 10.861 3.481 15.256 4.885 11.933 9.29z" fill="#FDC510"/><path d="M237.544 262.872c-5.99-9.054-26.462-8.954-45.245-6.641l-23.311-1.376-3.173-8.837-37.128 11.34c1.173-.19.987 14.754 1.666 16.054 5.311 10.172 20.409 18.584 32.519 18.742 14.388.191 27.96-3.956 41.406-8.398 24.415-8.058-9.824 42.832-17.593 58.949-7.768 16.117.77 15.266 20.155 14.419 19.39-.846 10.232.426 13.537-13.038 3.309-13.468 29.015-63.299 17.167-81.214z" fill="#5A54FF"/><path d="M164.257 141.76s-2.784 20.4-2.788 20.4c-4.926 1.449-10.087 4.215-15.275 4.206.235-3.785 3.939-8.113 5.641-11.685 2.064-4.332 3.517-8.819 3.291-13.677-.598-12.694 9.131.756 9.131.756z" fill="#D4A79A"/><path d="M188.827 99.128c.846.28 3.39 9.896-1.132 16.117-4.523 6.22-1.897 5.373-6.32 9.611-4.423 4.242-7.533 5.161-7.533 5.161l-5.089 1.906.566-10.462 5.052-16.683 15.936-5.65" fill="#27197A"/><path d="M176.82 101.369c-.009.022 8.009 5.46 3.758 18.466-4.545 13.921-11.105 25.579-15.311 24.37-11.635-3.336-15.094-12.033-18.607-19.544-4.305-9.208 7.443-29.848 7.443-29.848l9.851-4.31 12.866 10.866z" fill="#EAC2AB"/><path d="M194.947 98.218c1.309-3.246-.154-9.349-2.408-11.603-.869-.87-2.006-1.472-3.192-1.454-.892.014-1.797.372-2.662.154-2.598-.656-2.594-2.87-4.975-3.861-1.775-.738-3.663.77-5.56 1.054-1.43.213-2.852-.285-4.242-.697-3.907-1.163-7.433-3.373-11.472-4.201-3.404-.697-7.021-.607-10.272.806-3.391 1.476-5.98 4.486-7.529 8.085-.923 2.15-1.362 4.596-.955 6.909-.335-1.901-3.852-.177-4.455.511-2.367 2.703-8.334 10.612-7.479 14.053.68 2.725-1.426 5.193-.828 7.954.711 3.287 9.308 5.184 10.847 8.172 1.766 3.427 5.673 5.419 9.227 4.803-.829-3.037-1.648-6.143-1.585-9.33.064-3.187-2.952-17.847 12.903-19.653 6.302-.72 13.35 5.071 19.544 5.831 2.942.362 5.944.032 8.805-.865 2.209-.692 4.554-3.707 5.922-5.944.145-.23.267-.47.366-.724z" fill="#4B369D"/><path d="M262.154 142.68c-.385-.163-.788.176-1.069.489-2.553 2.825-5.111 5.645-7.664 8.47-.498.552-1.019 1.118-1.689 1.44-.67.321-1.539.335-2.096-.159-.67-.593-.647-1.63-.57-2.526.113-1.354 2.358-4.038.212-4.631-3.046 1.48-5.962 7.764-6.863 10.924-1.2 3.359 1.517 5.745-.317 8.642-3.404 5.383-6.718 10.807-10.394 16.009a403.597 403.597 0 01-5.904 8.081c-.901 1.208-4.658 7.859-5.971 7.995-4.364 5.894-8.584 12.015-13.283 17.651-1.793 2.151-15.492-10.249-15.492-10.249-12.011-9.286-14.043-16.611-14.043-16.611l-10.508 2.699s3.73 9.507 11.051 15.772c7.986 6.832 18.195 17.62 23.79 21.826 5.6 4.206 5.99 2.164 8.104.136 4.45-4.287 7.719-10.847 11.146-15.94 5.913-8.792 11.762-17.634 17.416-26.598 2.739-4.341 5.632-8.977 8.136-13.604 2.399-4.432 4.4-6.872 8.796-9.448 3.699-2.169 5.768-5.564 6.429-9.843.47-3.051.208-6.197 1.05-9.194.136-.476.19-1.141-.267-1.331z" fill="#EAC2AB"/><path d="M168.499 201.76c-1.285-12.305 4.659-31.89-2.512-41.877-.734-1.023-1.526-2.046-2.594-2.716-13.491-8.466-22.826 4.69-27.136 16.266-3.74 10.037-3.278 19.272-3.554 29.744-.467 17.647-4.573 34.814-9.815 51.587-1.87 5.985-2.368 12.953 2.924 13.863 7.149 1.227 8.688-7.579 15.506-9.852 6.229-2.078 11.264-.801 18.073-.43 3.377.186 14.405-2.037 13.731-8.316-1.594-14.886-3.989-27.72-4.066-38.088a104.132 104.132 0 00-.557-10.181z" fill="#D7384E"/><path d="M179.546 186.575s-14.6-29.961-23.913-20.707c-9.308 9.254 12.382 39.468 12.382 39.468l15.053-15.415-3.522-3.346z" fill="#F44E4E"/><path d="M178.817 100.024c3.481-1.992 4.491-6.492 4.844-10.49.385-4.34.312-10.208-3.346-13.269-1.412-1.181-3.141-1.915-4.907-2.444-8.652-2.603-19.114-1.88-27.526 1.313-8.579 3.255-14.939 10.684-17.982 19.213a39.182 39.182 0 00-2.254 13.405c.032 4.808 2.173 9.811-1.558 13.786a15.764 15.764 0 003.98-.498c-4.749 1.222-12.4 1.484-12.595 8.284-.077 2.708 1.684 5.066 3.169 7.334 1.485 2.269 2.798 5.089 1.766 7.597-1.299 3.165-5.813 4.41-6.397 7.787-.693 4.011 3.097 5.849 4.622 8.973 1.924 3.938.082 8.52-.362 12.604-.394 3.621 2.947 5.287 5.129 7.451 6.325 6.266 6.239 13.392-.674 20.314-.141.14-.086.412.013.584.105.181.331.258.535.312 8.941 2.336 20.549-6.297 22.608-14.912.929-3.88-1.439-7.511-.402-11.237.828-2.979 3.861-4.663 6.478-6.302 6.076-3.803 4.871-13.491 4.097-20.617-.674-6.215.937-7.402-2.603-12.554-1.843-2.68-3.287-5.613-4.509-8.628-1.625-4.012-3.518-1.327-3.377-5.65a15.334 15.334 0 016.347-11.925 16.71 16.71 0 016.768-2.884c2.567-.462 5.184-.896 7.18-2.703 1.865-1.688 4.441-5.514 7.33-5.256 3.603.322 7.737-.58 9.606-3.671" fill="#4B369D"/></svg>