<svg width="660" height="383" fill="none" xmlns="http://www.w3.org/2000/svg"><path d="M617.267 136.437c.585 1.088.711 2.409.742 3.684.297 11.634-6.494 23.075-16.155 27.22-2.272.976-4.759 1.639-6.531 3.506-1.772 1.873-2.348 5.547-.4 7.176 1.291 1.078 3.076.835 4.664.541l17.397-3.233c1.16 5.956-1.943 12.6-6.963 14.897-2.1.962-4.439 1.23-6.445 2.424-2.006 1.195-3.643 3.877-2.77 6.235.791 2.145 3.404 3.426 3.22 5.743-.175 2.242-2.694 2.94-4.569 3.704-9.702 3.937-9.337 19.791-15.886 28.753-4.25 5.815-11.078 8.198-17.505 10.298-5.545 1.812-11.352 3.638-17.019 2.399-9.296-2.03-16.168-13.274-14.522-23.764 1.641-10.475 9.917-17.681 17.172-24.497 15.201-14.28 27.367-27.548 30.898-49.586 1.178-7.353 3.081-12.317 8.986-16.436 5.933-4.139 21.053-7.692 25.686.936z" fill="#F44E4E"/><path d="M529.541 216.699c4.426-6.477 8.856-12.954 13.282-19.432 13.088-19.143 26.36-38.656 33.898-61.27 2.982-8.942 5.042-18.47 4.349-27.984-.139-1.958-.476-4.073-1.772-5.389-2.204-2.237-5.685-.921-8.316.612-7.902 4.605-15.31 10.278-22.011 16.866-.211-20.879 17.833-36.682 21.053-57.247.522-3.335.589-6.989-.998-9.863-1.021-1.847-2.645-3.203-4.399-4.114-5.968-3.107-13.227-1.26-18.71 2.829-5.478 4.088-9.548 10.11-13.502 16.02 5.514-7.888 8.982-17.569 9.873-27.558.368-4.14.175-8.724-2.267-11.851-4.138-5.293-12.243-3.112-16.659 1.897-8.514 9.655-8.15 25.029-7.858 38.626.293 13.597-1.088 29.456-11.217 36.885-1.214.89-2.581 1.69-3.287 3.117-1.377 2.778.562 6.305 2.999 7.919 2.438 1.615 5.362 2.146 7.75 3.846 5.356 3.811 6.427 12.11 5.842 19.209-.584 7.1-2.253 14.417-.337 21.218 2.379 8.456 2.883 19.255 4.632 27.903.792 3.927 7.287 3.087 7.417 7.11.135 4.023 1.097 8.375 3.958 10.794 2.865 2.413 7.938 1.437 8.811-2.47" fill="#8C50FF"/><path d="M632.509 352.585c7.997-.78 16.277-1.964 23.06-6.791 2.518-1.792 4.992-5.273 3.494-8.173-.594-1.148-1.677-1.842-2.73-2.439-10.853-6.184-23.666-7.894-35.504-4.731-4.709 1.255-9.719 3.238-14.221 1.245 10.169-6.442 20.338-12.879 30.507-19.321 1.988-1.26 4.057-2.601 5.294-4.757 1.236-2.155 1.322-5.384-.441-7.018-.774-.719-1.781-1.033-2.771-1.235-6.121-1.265-12.75 1.194-17.01 6.3 6.396-9.28 10.66-20.408 12.261-32.017.229-1.67.378-3.491-.4-4.933-.707-1.306-2.038-2.004-3.338-2.44-4.542-1.513-9.692-.506-13.519 2.642-4.462 3.674-6.819 9.655-9.85 14.857-3.036 5.197-7.727 10.171-13.237 9.676 5.829-9.838 8.775-21.795 8.276-33.606-.175-4.14-.828-8.441-3.018-11.771-2.73-4.144-7.565-6.133-12.139-5.804-4.574.329-8.883 2.733-12.467 5.946-10.727 9.63-15.148 27.235-10.48 41.753 1.161 3.613 2.843 7.499 1.66 11.107-.832 2.531-2.897 4.251-4.911 5.719-13.525 9.862-30.328 25.944-12.994 43.316 4.691 4.701 9.557 4.899 15.571 4.711 9.741-.303 19.461-.222 29.212-.318 13.236-.122 26.49-.628 39.695-1.918z" fill="#FAE026"/><path d="M516.273 209.473a.76.76 0 01-.206-.03c-.455-.127-.725-.643-.612-1.154 26.459-117.815 26.976-118.387 27.197-118.635a.776.776 0 011.192.01c.265.304.315.76.144 1.114-.972 2.92-17.995 78.339-26.9 117.977-.095.43-.441.718-.815.718z" fill="#fff"/><path d="M527.657 158.951c-.319 0-.621-.203-.765-.547-.198-.475-.013-1.037.41-1.26l32.711-17.109c.418-.217.926-.015 1.12.461.197.475.013 1.037-.41 1.26l-32.711 17.109a.747.747 0 01-.355.086zm44.135 57.475a.824.824 0 01-.324-.071c-.432-.202-.634-.754-.454-1.24l21.156-57.47c.18-.486.675-.713 1.102-.511.432.202.634.754.455 1.24l-21.157 57.47c-.135.359-.445.582-.778.582zm0 134.129a.787.787 0 01-.585-.263 1.03 1.03 0 01-.022-1.341l35.481-41.535a.779.779 0 011.192-.025c.337.364.346.961.023 1.341l-35.482 41.535a.795.795 0 01-.607.288z" fill="#fff"/><path d="M616.543 344.099a.787.787 0 01-.211-.031l-30.894-9.058c-.45-.131-.72-.648-.603-1.159.117-.506.576-.809 1.025-.678l30.894 9.058c.45.132.72.648.603 1.159-.099.425-.436.709-.814.709z" fill="#fff"/><path d="M371.784 337.56H263.225c-3.647 0-6.634-3.36-6.634-7.464 0-4.103 2.987-7.464 6.634-7.464h108.563c3.648 0 6.634 3.361 6.634 7.464 0 4.104-2.986 7.464-6.638 7.464z" fill="#978CFF"/><path d="M337.845 337.56h-40.681c-2.847 0-5.177-2.621-5.177-5.824V277.14c0-3.203 2.33-5.825 5.177-5.825h40.681c2.847 0 5.176 2.622 5.176 5.825v54.596c0 3.203-2.329 5.824-5.176 5.824z" fill="#978CFF"/><path d="M507.134 291.334h-379.26c-7.839 0-14.252-7.216-14.252-16.036V16.036c0-8.82 6.413-16.036 14.252-16.036h379.26c7.84 0 14.253 7.216 14.253 16.036v259.262c.005 8.82-6.413 16.036-14.253 16.036z" fill="#A7ADFF"/><path d="M133.101 6.78c-7.057 0-12.828 6.493-12.828 14.433v93.222c40.38-36.475 81.34-72.292 122.708-107.654h-109.88z" fill="#EFF0FC"/><path d="M500.347 6.78h-257.37c-41.369 35.363-82.329 71.18-122.708 107.655v133.107c0 7.94 5.775 14.432 12.827 14.432h367.247c7.057 0 12.827-6.497 12.827-14.432V21.213c.005-7.94-5.77-14.432-12.823-14.432z" fill="#E3E5FC"/><path d="M316.724 278.759c1.957 0 3.544-1.785 3.544-3.987 0-2.203-1.587-3.988-3.544-3.988s-3.544 1.785-3.544 3.988c0 2.202 1.587 3.987 3.544 3.987z" fill="#4B369D"/><path d="M7.118 345.955c-.688-.688-1.407-1.492-1.497-2.525-.108-1.255.769-2.353 1.713-3.036 2.456-1.786 5.541-1.928 8.37-2.768 2.83-.84 5.82-2.996 6.018-6.275.4-6.664-9.773-12.311-13.542-15.813-2.744-2.551-5.564-5.212-7.129-8.805-1.565-3.593-1.52-8.4 1.075-11.138 3.216-3.396 16.866-.45 20.437-3.37 4.624-3.78-25.874-13.597-.499-17.625-5.59-16.831 10.925-11.158 14.64-6.938 2.383 2.707 8.752 11.37 11.76 9.615 1.39-.81 8.348 1.204 9.315-.188 3.954-5.682-4.412-.197 1.116-3.79 6.337 13.698-2.955 32.467-3.774 46.712-.409 7.15 7.21 7.995 7.444 15.763.14 4.585-1.547 8.957-3.198 13.152-2.163 5.495-4.682 11.416-9.49 14.042-4.043 2.212-8.842 1.564-13.214.38-10.92-2.96-21.165-8.992-29.545-17.393z" fill="#8C50FF"/><path d="M53.385 371.591c-.35 0-.674-.248-.796-.637l-23.594-77.085c-.153-.496.08-1.032.521-1.204.441-.172.918.091 1.07.587l23.595 77.084c.153.496-.08 1.033-.521 1.205a.76.76 0 01-.275.05z" fill="#8C50FF"/><path d="M37.365 319.242a.771.771 0 01-.329-.076c-19.95-9.473-19.937-9.969-19.906-10.789.014-.394.265-.769.603-.89.382-.142.791.04.99.415 1.578 1.123 12.318 6.361 18.97 9.523.427.203.63.759.45 1.24-.14.359-.45.577-.778.577z" fill="#8C50FF"/><path d="M48.843 356.754a.814.814 0 01-.284-.055c-.184-.076-26.072-10.338-26.072-10.338l.557-1.787c26.257 10.409 26.257 10.409 26.392 10.566.28.314.329.8.117 1.179a.823.823 0 01-.71.435z" fill="#fff"/><path d="M204.154 330.891c1.907-1.584 3.989-3.522 4.124-6.184.144-2.839-2.253-5.283-4.767-5.551-2.519-.268-4.97 1.189-6.796 3.163-2.011-9.2 13.097-14.139 11.828-23.501-3.976-1.553-8.765.127-11.253 3.953-2.712-7.13 1.498-15.055 5.793-21.122 4.295-6.068 9.175-13.071 7.853-20.682-3.827-.688-7.907.643-10.812 3.532-1.849-3.431-2.177-7.848-.864-11.578.792-2.252 2.173-4.448 1.853-6.841-.652-4.914-6.854-5.137-11.158-4.023.634-11.346-7.92-22.332-18-23.116-4.461-.349-9.989 2.49-9.804 7.52.063 1.771.85 3.385 1.52 4.984 3.027 7.246 3.899 15.611 2.447 23.45-1.291 6.968-4.233 14.73-.761 20.681 1.12 1.923 2.811 3.37 3.895 5.324 1.273 2.287 1.606 5.055 1.912 7.727 1.587 13.916-.014 39.663 8.199 51.13 8.037 11.223 25.6-3.391 33.102-9.65 11.883-9.909 21.099-25.393 20.586-42.022-.032-.996-.14-2.095-.796-2.762-.724-.739-1.831-.668-2.802-.552-4.354.521-8.712 1.037-13.066 1.559 2.155-12.661 15.193-21.391 14.689-34.269l-9.328-1.139c2.55-4.665 5.15-9.493 5.874-14.907.724-5.415-.913-11.619-5.145-14.316-6.189-3.942-13.695 1.164-19.308 6.052 12.139-10.703 22.209-82.175-5.901-66.452-3.09 1.73-6.688 3.102-9.94 1.811-7.835-3.107-.683-17.256-4.772-23.647-1.448-2.267-3.778-3.653-6.17-4.387-5.555-1.711-11.829-.106-16.178 4.139-4.349 4.246-6.652 11.001-5.937 17.433.531 4.757 2.563 9.109 4.43 13.42 6.031 13.926-45.201-23.449-25.767 28.014-7.722-5.89 22.547 5.592 13.336 7.262s-17.721 10.733-17.24 21.218c.45 9.685 7.696 16.937 14.114 23.409 6.422 6.472 13.065 14.928 11.761 24.517-.751 5.506-4.039 10.096-5.919 15.252-1.884 5.152-1.772 12.261 2.546 14.989 2.523 1.594 5.887 1.24 8.064 3.385 2.019 1.989 2.262 5.344 2.64 8.335 1.3 10.303 7.169 24.436 15.719 29.714 8.168 5.01 19.066-9.336 26.199-15.272z" fill="#FAE026"/><path d="M201.41 348.43c-.396 0-.751-.319-.827-.769l-20.626-122.526c-.086-.516.216-1.012.67-1.108.468-.097.899.242.985.754l20.626 122.526c.085.516-.216 1.012-.67 1.108a.878.878 0 01-.158.015z" fill="#fff"/><path d="M191.295 288.344a.777.777 0 01-.445-.142c-.396-.278-.517-.86-.27-1.306l19.101-34.663c.248-.445.765-.582 1.161-.304.395.279.517.861.269 1.306l-19.101 34.663c-.162.284-.436.446-.715.446zm-16.43-67.986a.78.78 0 01-.445-.142c-.396-.278-.517-.86-.27-1.305l19.102-34.664c.247-.445.764-.582 1.16-.303.396.278.517.86.27 1.305l-19.102 34.664a.816.816 0 01-.715.445z" fill="#fff"/><path d="M334.678 277.499c.954-.728 2.002-1.285 3.117-1.614 4.651-1.371 9.481 1.356 13.259 4.696 3.783 3.34 7.165 7.439 11.595 9.539 2.06.976 5.253.825 5.604-1.66.162-1.154-.441-2.252-1.039-3.208-6-9.605-14.131-16.791-21.53-24.923-1.979-2.175-4.129-5.181-3.058-8.051 1.147-3.081 5.149-3.203 7.754-1.604 2.604 1.599 4.61 4.322 7.344 5.612.715.339 1.502.572 2.262.4 1.44-.324 2.357-2.054 2.429-3.704.445-10.151-10.884-17.165-14.801-25.115-3.342-6.786-3.333-14.983-2.767-22.716.446-6.037 1.332-12.443 4.894-16.982.805-1.027 1.826-1.979 3.036-2.075 4.614-.384 5.532 11.654 8.316 14.797 2.532 2.854 6.022 4.726 7.772 8.243 2.208 4.438.944 9.969 1.596 15.004 1.039 8.051 7.592 9.478 9.886 15.424.063-4.6.076-9.261.108-13.886.009-1.472.085-3.127 1.052-4.124 2.105-2.176 5.312 1.164 5.915 4.306.796 4.135.067 8.431.112 12.661.045 4.231 1.17 8.927 4.412 11.072 3.576 2.364 8.074.704 12.036-.673 3.962-1.376 8.901-2.14 11.694 1.311 1.097 1.351 1.646 3.158 1.956 4.954 2.618 15.227-10.128 30.387-6.211 45.255 3.513 13.329 11.194 21.046-1.053 32.098-5.019 4.529-10.578 6.715-17.018 5.065-4.93-1.26-9.387-4.15-13.84-6.837-9.197-5.541-19.555-7.909-29.27-12.15-6.778-2.96-13.394-7.226-17.59-13.91-4.196-6.685-5.438-16.178-1.511-23.065.922-1.62 2.127-3.062 3.539-4.14z" fill="#F44E4E"/><path d="M402.435 338.314c-.333 0-.648-.222-.778-.587l-41.77-114.621c-.175-.486.032-1.038.459-1.235.428-.197.927.03 1.098.516l41.769 114.622c.175.486-.032 1.037-.459 1.235a.798.798 0 01-.319.07z" fill="#fff"/><path d="M394.105 315.447a.717.717 0 01-.18-.021l-41.58-10.059c-.454-.112-.742-.613-.648-1.124.099-.511.545-.835 1.003-.729l41.581 10.06c.454.112.742.613.647 1.124-.085.445-.436.749-.823.749zm-15.683-43.028a.695.695 0 01-.279-.056l-16.07-6.376c-.44-.172-.67-.714-.517-1.209.153-.491.639-.749 1.075-.577l16.07 6.376c.441.172.67.713.517 1.209-.121.385-.45.633-.796.633zm4.768 13.076a.638.638 0 01-.234-.041c-.45-.147-.706-.673-.576-1.174l6.175-23.88c.131-.501.594-.799 1.044-.647.449.146.706.673.575 1.174l-6.175 23.879c-.108.42-.445.689-.809.689z" fill="#fff"/><path d="M64.54 235.898c-.469 0-.842-.425-.842-.946v-2.844c0-.526.378-.946.841-.946.463 0 .841.425.841.946v2.844c0 .521-.373.946-.84.946z" fill="#4B369D"/><path fill-rule="evenodd" clip-rule="evenodd" d="M89.55 98.419c0 .52.378.94.841.94h.004c.002 0 .003-.001.005-.004 1.763-.02 3.482-.025 5.132-.025.463 0 .841-.42.841-.947 0-.52-.373-.946-.84-.946-1.656 0-3.379.01-5.146.025-.468.005-.841.435-.837.957zm16.25.986h-.013a638.75 638.75 0 00-5.132-.055c-.468-.005-.841-.43-.837-.952.005-.52.441-.895.846-.94 1.871.014 3.603.03 5.145.055.463.005.837.435.832.961-.004.516-.378.931-.841.931zm-26.522-.79c.009.517.387.927.84.927.01 0 .014 0 .028-.005 1.722-.05 3.436-.091 5.127-.122.463-.005.837-.435.828-.961-.005-.521-.31-.916-.855-.931l-.124.002c-1.66.035-3.336.07-5.021.12-.468.014-.837.45-.823.97zm-8.973 3.705a.826.826 0 01-.71-.435c-.252-.44-.14-1.027.251-1.311 1.435-1.042 3.117-1.816 4.993-2.297.445-.127.904.202 1.007.713.104.512-.18 1.018-.634 1.134-1.687.43-3.184 1.118-4.453 2.044a.765.765 0 01-.454.152zm-5.653 9.387a.7.7 0 00.175.02c.387 0 .738-.308.828-.744.355-1.887.953-3.577 1.776-5.03.252-.445.135-1.027-.256-1.31-.391-.284-.913-.152-1.165.288-.931 1.64-1.606 3.543-2.006 5.653-.099.511.194 1.012.648 1.123zm-.113 11.548c-.468 0-.84-.425-.84-.946v-4.788c-.01-.02-.05-.374-.082-.926-.031-.521.324-.971.787-1.007.46-.03.864.365.895.886.025.419.054.705.067.822l.005.058.01 4.955c0 .521-.374.946-.842.946zm-.84 10.611c0 .522.373.947.84.947.468 0 .841-.425.841-.952v-5.779c0-.521-.377-.946-.84-.946-.464 0-.842.42-.842.946v5.784zm.84 12.504c-.468 0-.84-.425-.84-.946v-5.779c0-.526.377-.946.84-.946.463 0 .841.425.841.946v5.779c0 .521-.373.946-.84.946zm-.84 10.612c0 .521.373.946.84.946.468 0 .841-.425.841-.946v-5.779c0-.521-.377-.946-.84-.946-.464 0-.842.42-.842.946v5.779zm.84 12.504c-.468 0-.84-.425-.84-.946v-5.779c0-.526.377-.946.84-.946.463 0 .841.425.841.946v5.779c0 .521-.373.946-.84.946zm-.84 10.612c0 .521.373.946.84.946.468 0 .841-.425.841-.946v-5.779c0-.522-.377-.947-.84-.947-.464 0-.842.42-.842.947v5.779zm.84 12.504c-.468 0-.84-.425-.84-.946v-5.784c0-.527.377-.947.84-.947.463 0 .841.425.841.947v5.778c0 .527-.373.952-.84.952zm-.84 10.611c0 .522.373.947.84.947.468 0 .841-.425.841-.947v-5.779c0-.521-.377-.946-.84-.946-.464 0-.842.42-.842.946v5.779zm.84 12.504c-.468 0-.84-.425-.84-.946v-5.779c0-.526.377-.946.84-.946.463 0 .841.425.841.946v5.779c0 .521-.373.946-.84.946zm0 11.558c-.468 0-.84-.425-.84-.946v-5.779c0-.526.377-.946.84-.946.463 0 .841.425.841.946v5.779c0 .521-.373.946-.84.946z" fill="#4B369D"/><path d="M113.496 99.567h-.023s-.908-.025-2.519-.066c-.463-.01-.836-.445-.827-.966.009-.521.441-.89.859-.931 1.615.035 2.528.066 2.528.066.463.015.832.45.818.971-.009.516-.382.926-.836.926zm208.333 240.842c-.459 0-.832-.41-.841-.926-.036-1.796-.063-2.828-.063-2.828-.014-.522.351-.962.818-.977.432.005.855.395.868.921 0 0 .027 1.037.063 2.849.009.521-.359.956-.823.966-.009-.005-.018-.005-.022-.005z" fill="#4B369D"/><path fill-rule="evenodd" clip-rule="evenodd" d="M321.109 350.722c0 .527.378.947.841.947.468 0 .846-.43.846-.957a920.832 920.832 0 00-.041-5.642c-.009-.521-.454-.967-.854-.936-.463.01-.837.44-.832.961.018 1.695.036 3.588.04 5.627zm.778 12.211h-.013c-.463-.01-.837-.44-.828-.961.027-1.918.045-3.806.054-5.622.005-.522.378-.942.841-.942h.005c.467.005.841.43.836.952a623.263 623.263 0 01-.054 5.642c-.004.516-.377.931-.841.931zm-1.133 11.123c.085.035.175.05.265.05.351 0 .679-.253.801-.652.472-1.589.737-3.386.791-5.344l.014-.466c.013-.526-.355-.961-.819-.976-.431-.01-.854.399-.868.921l-.013.465c-.045 1.771-.284 3.386-.702 4.802-.148.496.09 1.033.531 1.2zm-190.064 2.98c-.333 0-.648-.222-.778-.587a7.149 7.149 0 01-.373-1.568l-.009-4.373c0-.526.377-.946.841-.946.463 0 .841.425.841.946v4.241c.04.258.126.627.252.977.175.485-.032 1.037-.459 1.234a.687.687 0 01-.315.076zm182.715 4.099c.126.39.45.633.796.633.09 0 .184-.021.279-.056 1.794-.714 3.328-1.766 4.551-3.127.329-.37.333-.967.005-1.341a.779.779 0 00-1.192-.005c-1.048 1.163-2.366 2.064-3.926 2.687-.437.172-.671.713-.513 1.209zm-174.451 1.175l-.011-.001c-1.956-.344-3.648-.891-5.033-1.614-.423-.223-.602-.785-.409-1.26.193-.476.693-.678 1.12-.461 1.241.648 2.784 1.139 4.583 1.458.459.081.773.566.701 1.083-.067.47-.427.804-.832.804a.923.923 0 01-.118-.009h-.001zm5.121.389h5.006c.467 0 .841-.425.841-.947 0-.521-.374-.946-.841-.946h-5.006c-.463 0-.841.42-.841.946 0 .522.373.947.841.947zm15.022 0h-5.006c-.468 0-.841-.425-.841-.947 0-.526.378-.946.841-.946h5.006c.468 0 .841.425.841.946 0 .522-.378.947-.841.947zm5.006 0h5.005c.464 0 .841-.425.841-.947 0-.521-.373-.946-.841-.946h-5.005c-.464 0-.841.42-.841.946 0 .522.373.947.841.947zm15.017 0h-5.006c-.468 0-.841-.425-.841-.947 0-.526.378-.946.841-.946h5.006c.468 0 .841.425.841.946 0 .522-.373.947-.841.947zm5.006 0h5.006c.467 0 .845-.425.841-.947 0-.521-.374-.946-.841-.946h-5.006c-.463 0-.841.42-.841.946 0 .522.373.947.841.947zm15.022 0h-5.006c-.468 0-.841-.425-.841-.947 0-.526.378-.946.841-.946h5.006c.468 0 .841.425.841.946 0 .522-.378.947-.841.947zm5.006 0h5.006c.467 0 .841-.425.841-.947 0-.521-.374-.946-.841-.946h-5.006c-.464 0-.841.42-.841.946 0 .522.373.947.841.947zm15.017 0h-5.006c-.467 0-.841-.425-.841-.947 0-.526.378-.946.841-.946h5.006c.468 0 .841.425.841.946.005.522-.373.947-.841.947zm5.01 0h5.006c.464 0 .841-.425.841-.947 0-.521-.373-.946-.841-.946h-5.006c-.463 0-.841.42-.841.946 0 .522.374.947.841.947zm15.018 0h-5.006c-.468 0-.841-.425-.841-.947 0-.526.378-.946.841-.946h5.006c.468 0 .841.425.841.946 0 .522-.373.947-.841.947zm5.006 0h5.006c.467 0 .845-.425.841-.947 0-.521-.374-.946-.841-.946h-5.006c-.463 0-.841.42-.841.946 0 .522.373.947.841.947zm15.022 0h-5.006c-.468 0-.841-.425-.841-.947 0-.526.378-.946.841-.946h5.006c.468 0 .841.425.841.946 0 .522-.378.947-.841.947zm5.006 0h5.005c.464 0 .841-.425.841-.947 0-.521-.373-.946-.841-.946h-5.005c-.464 0-.841.42-.841.946 0 .522.373.947.841.947zm15.017 0h-5.006c-.467 0-.841-.425-.841-.947 0-.526.378-.946.841-.946h5.006c.468 0 .841.425.841.946.005.522-.373.947-.841.947zm5.006 0h5.006c.467 0 .845-.425.841-.947 0-.521-.374-.946-.841-.946h-5.006c-.463 0-.841.42-.841.946 0 .522.373.947.841.947zm15.022 0h-5.006c-.468 0-.841-.425-.841-.947 0-.526.378-.946.841-.946h5.006c.468 0 .841.425.841.946 0 .522-.378.947-.841.947zm9.166.111c-1.005 0-1.704-.086-1.901-.11a.834.834 0 00-.056-.006l-2.199.01c-.468 0-.841-.425-.841-.947 0-.526.378-.946.841-.946h2.316l.037.004.043.004.034.004c.331.037 1.261.14 2.54.079.463-.015.859.385.877.906.023.521-.342.967-.805.987-.319.01-.616.015-.886.015z" fill="#4B369D"/><path d="M130.375 365.782c-.467 0-.841-.425-.841-.946v-2.844c0-.527.378-.947.841-.947.464 0 .841.425.841.947v2.844c.005.521-.373.946-.841.946z" fill="#4B369D"/><path d="M212.987 120.978h-97.103c-11.042 0-20.077-10.167-20.077-22.59S104.842 75.8 115.884 75.8h97.103c11.042 0 20.077 10.166 20.077 22.59.005 12.422-9.031 22.589-20.077 22.589z" fill="#8C50FF"/><path d="M210.392 88.42a8.947 8.947 0 011.219-.056c5.379.126 9.67 5.151 9.557 11.208-.112 6.052-4.578 10.875-9.962 10.754l.049-2.632c4.093.096 7.489-3.572 7.574-8.172.086-4.605-3.175-8.426-7.263-8.522a6.394 6.394 0 00-.931.046l-.243-2.627z" fill="#fff"/><path d="M208.053 108.934l3.715 2.53.09-4.883-3.805 2.353zm-1.435 1.199a8.869 8.869 0 01-1.218.056c-5.38-.127-9.67-5.151-9.558-11.209.113-6.052 4.579-10.874 9.962-10.753l-.049 2.632c-4.093-.097-7.489 3.572-7.574 8.172-.086 4.605 3.175 8.425 7.264 8.522.305.005.62-.006.931-.046l.242 2.626z" fill="#fff"/><path d="M208.957 89.619l-3.71-2.525-.09 4.878 3.8-2.353z" fill="#fff"/><path d="M598.436 363.368c-.585.329-1.498.516-2.834.516-35.918-.005-71.818-.015-107.74.096-17.99.056-35.981-.091-53.971-.045-9.085.02-18.17.096-27.255.263-4.543.086-9.086.197-13.628.339-3.342.106-7.394.799-10.574-.764-1.084-.532-2.109-1.245-2.541-2.561a2.966 2.966 0 01-.054-.941c.351-2.722 4.061-7.297 5.518-9.549 2.991-4.63 6.05-9.665 11.415-11.269 3.122-.931 6.409-.916 9.652-.896 56.818 0 113.636.354 170.455.552 3.562.01 7.96.602 10.438 3.663 3.149 3.887 5.924 8.097 8.474 12.459 1.525 2.606 5.208 6.705 2.645 8.137z" fill="#978CFF"/><path d="M568.967 341.846H408.83c-11.122 0-20.221-10.237-20.221-22.751v-124.56c0-12.514 9.099-22.752 20.221-22.752h160.137c11.123 0 20.221 10.238 20.221 22.752V319.09c0 12.519-9.098 22.756-20.221 22.756z" fill="#A7ADFF"/><path d="M409.105 179.177c-8.667 0-15.76 7.98-15.76 17.731v92.938c51.291-34.633 101.457-71.229 149.896-110.664H409.105v-.005z" fill="#EFF0FC"/><path d="M567.829 179.177h-24.583c-48.444 39.435-98.606 76.036-149.896 110.664v20.09c0 9.751 7.092 17.731 15.759 17.731h158.725c8.667 0 15.759-7.98 15.759-17.731V196.908c-.004-9.751-7.097-17.731-15.764-17.731zm-68.336 154.912h-14.069c-.341 0-.62-.314-.62-.698 0-.385.279-.699.62-.699h14.069c.342 0 .621.314.621.699.004.384-.279.698-.621.698zm-91.756-156.592c.773 0 1.399-.705 1.399-1.574 0-.869-.626-1.574-1.399-1.574-.772 0-1.398.705-1.398 1.574 0 .869.626 1.574 1.398 1.574z" fill="#E3E5FC"/><path d="M413.764 177.497c.773 0 1.399-.705 1.399-1.574 0-.869-.626-1.574-1.399-1.574-.772 0-1.399.705-1.399 1.574 0 .869.627 1.574 1.399 1.574z" fill="#fff"/><path d="M419.845 177.497c.772 0 1.399-.705 1.399-1.574 0-.869-.627-1.574-1.399-1.574-.773 0-1.399.705-1.399 1.574 0 .869.626 1.574 1.399 1.574z" fill="#4B369D"/><path d="M404.045 350.186h-4.732c-.985 0-1.79-.906-1.79-2.014 0-1.108.805-2.014 1.79-2.014h4.732c.985 0 1.79.906 1.79 2.014.004 1.108-.805 2.014-1.79 2.014zm13.83 0h-4.731c-.985 0-1.791-.906-1.791-2.014 0-1.108.806-2.014 1.791-2.014h4.731c.985 0 1.79.906 1.79 2.014 0 1.108-.805 2.014-1.79 2.014zm13.83 0h-4.731c-.985 0-1.79-.906-1.79-2.014 0-1.108.805-2.014 1.79-2.014h4.731c.985 0 1.79.906 1.79 2.014 0 1.108-.805 2.014-1.79 2.014zm13.83 0h-4.731c-.985 0-1.79-.906-1.79-2.014 0-1.108.805-2.014 1.79-2.014h4.731c.985 0 1.79.906 1.79 2.014 0 1.108-.805 2.014-1.79 2.014zm13.83 0h-4.731c-.985 0-1.79-.906-1.79-2.014 0-1.108.805-2.014 1.79-2.014h4.731c.985 0 1.79.906 1.79 2.014 0 1.108-.805 2.014-1.79 2.014zm13.83 0h-4.731c-.985 0-1.79-.906-1.79-2.014 0-1.108.805-2.014 1.79-2.014h4.731c.985 0 1.79.906 1.79 2.014 0 1.108-.805 2.014-1.79 2.014zm13.826 0h-4.731c-.985 0-1.79-.906-1.79-2.014 0-1.108.805-2.014 1.79-2.014h4.731c.985 0 1.79.906 1.79 2.014.005 1.108-.8 2.014-1.79 2.014zm13.83 0h-4.731c-.985 0-1.79-.906-1.79-2.014 0-1.108.805-2.014 1.79-2.014h4.731c.985 0 1.79.906 1.79 2.014.005 1.108-.805 2.014-1.79 2.014zm13.83 0h-4.731c-.985 0-1.79-.906-1.79-2.014 0-1.108.805-2.014 1.79-2.014h4.731c.985 0 1.79.906 1.79 2.014.005 1.108-.805 2.014-1.79 2.014zm13.83 0h-4.731c-.985 0-1.79-.906-1.79-2.014 0-1.108.805-2.014 1.79-2.014h4.731c.985 0 1.79.906 1.79 2.014.005 1.108-.805 2.014-1.79 2.014zm13.83 0h-4.731c-.985 0-1.79-.906-1.79-2.014 0-1.108.805-2.014 1.79-2.014h4.731c.985 0 1.791.906 1.791 2.014 0 1.108-.806 2.014-1.791 2.014zm13.831 0h-4.732c-.985 0-1.79-.906-1.79-2.014 0-1.108.805-2.014 1.79-2.014h4.732c.985 0 1.79.906 1.79 2.014 0 1.108-.805 2.014-1.79 2.014zm13.83 0h-4.732c-.985 0-1.79-.906-1.79-2.014 0-1.108.805-2.014 1.79-2.014h4.732c.985 0 1.79.906 1.79 2.014 0 1.108-.805 2.014-1.79 2.014z" fill="#E3E5FC"/><path d="M568.23 204.053h-37.168c-1.696 0-3.081-1.558-3.081-3.466 0-1.908 1.385-3.466 3.081-3.466h37.168c1.695 0 3.081 1.558 3.081 3.466 0 1.908-1.386 3.466-3.081 3.466zm0 15.875h-37.168c-1.696 0-3.081-1.559-3.081-3.467 0-1.907 1.385-3.466 3.081-3.466h37.168c1.695 0 3.081 1.559 3.081 3.466 0 1.908-1.386 3.467-3.081 3.467zm-383.025-9.053v132.444c0 10.267-7.466 18.668-16.591 18.668h-75.61c-9.125 0-16.591-8.401-16.591-18.668V210.875c0-10.268 7.466-18.668 16.592-18.668h75.609c9.125-.005 16.591 8.4 16.591 18.668z" fill="#A7ADFF"/><path d="M82.61 342.909c0 1.574.266 3.077.725 4.479 1.628 4.954 5.851 8.516 10.785 8.516h73.356c6.328 0 11.509-5.85 11.509-12.995V212.013c0-3.972-1.606-7.545-4.115-9.933-29.527 31.875-60.893 61.675-92.26 91.481v49.348z" fill="#E3E5FC"/><path d="M154.5 199.018H94.115c-6.328 0-11.509 5.85-11.509 12.995v81.548c31.366-29.801 62.733-59.606 92.259-91.481-2.006-1.908-4.583-3.062-7.394-3.062H154.5z" fill="#EFF0FC"/><path d="M130.807 360.575c1.17 0 2.118-1.067 2.118-2.384 0-1.316-.948-2.383-2.118-2.383s-2.119 1.067-2.119 2.383c0 1.317.949 2.384 2.119 2.384z" fill="#4B369D"/><path d="M162.762 225.464h-37.168c-1.695 0-3.081-1.559-3.081-3.467 0-1.907 1.386-3.466 3.081-3.466h37.168c1.696 0 3.081 1.559 3.081 3.466.005 1.908-1.385 3.467-3.081 3.467zm0 15.874h-37.168c-1.695 0-3.081-1.559-3.081-3.466 0-1.908 1.386-3.467 3.081-3.467h37.168c1.696 0 3.081 1.559 3.081 3.467.005 1.907-1.385 3.466-3.081 3.466z" fill="#A7ADFF"/><path d="M85.675 234.947H45.642c-4.552 0-8.276 4.19-8.276 9.311v45.179c17.635-17.813 35.608-35.19 54.354-51.5-1.516-1.826-3.661-2.99-6.045-2.99z" fill="#EFF0FC"/><path d="M91.714 237.942c-18.742 16.305-36.719 33.687-54.354 51.499v65.066c0 5.121 3.724 9.311 8.276 9.311h40.033c4.552 0 8.276-4.19 8.276-9.311V244.263c0-2.394-.819-4.575-2.15-6.23-.023-.035-.054-.06-.081-.091z" fill="#E3E5FC"/><path fill-rule="evenodd" clip-rule="evenodd" d="M45.642 234.947h40.033c4.552 0 8.276 4.19 8.276 9.311v110.244c0 5.122-3.724 9.311-8.276 9.311H45.642c-4.552 0-8.276-4.189-8.276-9.311V244.258c0-5.121 3.724-9.311 8.276-9.311zM82.08 351.79c4.551 0 8.275-4.19 8.275-9.311v-93.89c0-5.121-3.724-9.311-8.275-9.311H49.23c-4.552 0-8.276 4.19-8.276 9.311v93.89c0 5.121 3.724 9.311 8.275 9.311h32.85z" fill="#978CFF"/><path d="M70.984 237.897H60.325c-.26 0-.472-.238-.472-.531 0-.294.211-.532.472-.532h10.66c.26 0 .472.238.472.532 0 .293-.212.531-.473.531z" fill="#E3E5FC"/><path d="M65.655 360.706c1.622 0 2.937-1.479 2.937-3.304 0-1.825-1.315-3.304-2.937-3.304-1.622 0-2.937 1.479-2.937 3.304 0 1.825 1.315 3.304 2.937 3.304z" fill="#4B369D"/><path d="M84.239 323.189H47.07c-1.696 0-3.081-1.559-3.081-3.466 0-1.908 1.385-3.467 3.08-3.467H84.24c1.695 0 3.08 1.559 3.08 3.467 0 1.907-1.385 3.466-3.08 3.466zm0 15.879H47.07c-1.696 0-3.081-1.558-3.081-3.466 0-1.908 1.385-3.466 3.08-3.466H84.24c1.695 0 3.08 1.558 3.08 3.466 0 1.903-1.385 3.466-3.08 3.466z" fill="#fff"/></svg>